<?xml version="1.0" standalone="no"?>
<!DOCTYPE svg PUBLIC "-//W3C//DTD SVG 1.1//EN" "http://www.w3.org/Graphics/SVG/1.1/DTD/svg11.dtd">
<svg xmlns="http://www.w3.org/2000/svg" id="Layer_2" data-name="Layer 2" viewBox="0 0 601.03 559.45" width="601.030029296875" height="559.4500122070312"><title>Infinite Topography-01-01</title><path d="M101.93,76.63" transform="translate(2.45 1.5)" fill="#fff" stroke="#c0c0c0" stroke-miterlimit="10" stroke-width="3"/><path d="M0,15.3H0l0-3a5.76,5.76,0,0,0,3.86-1.89C5.77,8.37,6.65,4.8,6.38.08l3-.16C9.69,5.6,8.55,9.84,6,12.53A8.79,8.79,0,0,1,0,15.3Z" transform="translate(2.45 1.5)" fill="#c0c0c0"/><path d="M1.31,110.93l-2.62-1.47C17,76.9-.86,59.16-1,59L1,56.82C1.24,57,20.7,76.37,1.31,110.93Z" transform="translate(2.45 1.5)" fill="#c0c0c0"/><path d="M21,161.31c-7.74,0-15.1-3-22-9L1,150c7.77,6.79,16.21,9.42,25.07,7.8,16.49-3,34.24-20.88,50-50.3C99.38,63.83,29.07,1.75,28.36,1.13l2-2.26A236.43,236.43,0,0,1,63.64,36.28c20,28.5,25.2,53.63,15,72.67-16.39,30.68-34.4,48.61-52.06,51.84A31.88,31.88,0,0,1,21,161.31Z" transform="translate(2.45 1.5)" fill="#c0c0c0"/><path d="M25.56,153.35A26,26,0,0,1,15.49,151c-.66-.27-1.28-.52-1.86-.73A19.67,19.67,0,0,1,2,139.12c-3.57-8.67-1.85-20.33,5.13-34.65,12.66-26,14.37-50.85,4.56-66.45C7.05,30.65,8.17,27.14,9.93,25.49,13.65,22,23,25,34.43,33.21,36.7,34.43,66.58,51,73.85,77.72c3.41,12.56,1.21,25.32-6.55,37.94C48.2,146.73,34.8,153.35,25.56,153.35ZM14.31,27a3.39,3.39,0,0,0-2.33.66c-1,.93-.92,3.71,2.24,8.74,10.36,16.48,8.72,42.41-4.41,69.36C3.32,119.11,1.58,130.24,4.76,138a16.69,16.69,0,0,0,9.86,9.43c.62.22,1.28.49,2,.77,7.62,3.07,21.78,8.78,48.14-34.09,7.3-11.88,9.39-23.85,6.21-35.57-7-26-37.72-42.54-38-42.71l-.18-.11C23.72,29.15,17.56,27,14.31,27Z" transform="translate(2.45 1.5)" fill="#c0c0c0"/><path d="M24.6,144.48h-.36c-4.74-.1-8.22-1.76-10.34-4.95-5.83-8.71.06-26.8,5.85-41.59l1.35-3.45C26.8,80,27,79.42,26.67,68.1c-.13-4.2-1.47-9.6-2.65-14.36-1.92-7.77-3.19-12.91-.63-14.8,1.77-1.31,4.2-.15,5.89.86C31.59,41,69.13,59.94,66,86.57,62.74,113.5,44,144.48,24.6,144.48Zm.65-103.12h-.11c-.85,1,.74,7.39,1.8,11.65,1.21,4.9,2.59,10.46,2.73,15,.37,11.94,0,12.83-5.77,27.59L22.54,99c-5.09,13-11.26,31.19-6.15,38.84,1.57,2.35,4.16,3.53,7.91,3.61h.3C42.23,141.48,60,111.39,63,86.21c3-24.8-34.69-43.55-35.07-43.74l-.11-.06A5.64,5.64,0,0,0,25.25,41.36Z" transform="translate(2.45 1.5)" fill="#c0c0c0"/><path d="M27.87,136.62A7.16,7.16,0,0,1,21.33,133c-1.27-3-1.42-7.75,9.74-36.26,5.69-14.55,5.43-22.4,5.29-26.62-.07-2.19-.12-3.64,1-4.6s2.44-.78,3.87-.57c1.42-.12,9.13-.47,13.81,5.56,5,6.51,4.49,17.81-1.63,33.56C43,130.79,33.87,136.52,28,136.62Zm11.5-68.78a15.7,15.7,0,0,0,0,2.21c.13,4.12.42,12.69-5.5,27.81-10.21,26.09-10.73,31.76-9.77,34A4.49,4.49,0,0,0,28,133.62c3.25-.06,12-3.15,22.61-30.6C56.2,88.54,56.91,78,52.64,72.4,48.64,67.21,41.39,68,41.32,68l-.2,0-.2,0A7,7,0,0,0,39.37,67.84Z" transform="translate(2.45 1.5)" fill="#c0c0c0"/><path d="M37.8,115.21a2,2,0,0,1-1.59-.82c-.63-.88-1.7-2.34,3-19.14,2.22-8,4.72-15.73,4.74-15.81l.54-1.67,1.57.79c.08,0,7.71,4.07,4.27,15.67C48.83,99.15,43.62,115.21,37.8,115.21Zm8.3-32.76c-3.91,12.34-7.42,25.49-7.48,29.4,2-1.51,5.65-7.84,8.8-18.47C49.2,87.35,47.51,84,46.1,82.45Z" transform="translate(2.45 1.5)" fill="#c0c0c0"/><path d="M21.35,171c-7,0-14.22-2.06-22-6l1.34-2.68C8.07,166,14.88,168,21.47,168c18.59,0,35.53-15.64,59.58-52,16.25-24.55,6-54.39-5.43-75.1A206,206,0,0,0,46.23,1.05L48.36-1A208.14,208.14,0,0,1,78.21,39.4c17,30.75,18.87,57.82,5.34,78.26C59,154.73,41,171,21.35,171Z" transform="translate(2.45 1.5)" fill="#c0c0c0"/><path d="M16.44,179.24c-12.61,0-17.35-5.72-17.62-6.06l2.36-1.87c.07.09,8.52,9.93,33.93,1.46,25.06-8.35,42.11-35.1,60-72.69C110.93,66.84,62.2,1.56,61.7.9L64.1-.9c2.06,2.73,50.31,67.4,33.72,102.27-18.22,38.28-35.69,65.56-61.76,74.25A62.42,62.42,0,0,1,16.44,179.24Z" transform="translate(2.45 1.5)" fill="#c0c0c0"/><path d="M105.16,64.08a3.21,3.21,0,0,1-.68-.07c-1.91-.39-3.22-2.28-4-5.78C99,51.62,80.25,17.73,70.57.74L73.18-.74c1.15,2,28.23,49.61,30.21,58.31.59,2.61,1.34,3.43,1.7,3.51s1.09-.46,1.58-1V0h3V61.13l-.29.39C109.17,61.81,107.43,64.08,105.16,64.08Z" transform="translate(2.45 1.5)" fill="#c0c0c0"/><path d="M99.84,43a1.75,1.75,0,0,1-.51-.07c-1-.31-2.29-.7-10.65-21.94C84.67,10.83,80.93.62,80.89.52l2.82-1C89.5,15.29,96.34,32.65,99.36,38.4c.84-6,1.21-22.89,1.07-38.39l3,0c0,.1.09,10.07-.11,20.13-.4,21-1.58,21.91-2.43,22.55A1.77,1.77,0,0,1,99.84,43Z" transform="translate(2.45 1.5)" fill="#c0c0c0"/><path d="M93.05,10.47a2.65,2.65,0,0,1-.91-.16C89.37,9.29,87.49,3,86.81.37l2.91-.74c.9,3.49,2.4,7,3.29,7.75.93-1,.24-4.55-.67-6.82L95.12-.56c.53,1.31,3,8-.52,10.51A2.6,2.6,0,0,1,93.05,10.47Z" transform="translate(2.45 1.5)" fill="#c0c0c0"/><path d="M192.28,119.06a68.36,68.36,0,0,1-9.79-.75C146,113.06,123,97,114.18,70.54c-2.8-8.43-.2-68.07-.09-70.61l3,.14c-.75,17.11-2.24,63-.07,69.46,8.45,25.34,30.61,40.74,65.91,45.81,15.94,2.3,27.65-1,34.8-9.73,11.87-14.54,7.9-40.61,5.72-46.69C220.39,50.4,195.28,1.18,195,.68L197.7-.68c1,2,25.45,49.89,28.57,58.59,1.62,4.53,7.38,32.93-6.23,49.59C213.77,115.19,204.45,119.06,192.28,119.06Z" transform="translate(2.45 1.5)" fill="#c0c0c0"/><path d="M178,71.3a34.11,34.11,0,0,1-3.65-.2c-26.61-2.82-28.24-21.77-30.13-43.7l-.08-1c-.85-9.85.63-16.77,4.38-20.58A9,9,0,0,1,155.11,3l.34,0,.29.17c7.74,4.42,16.69,16.57,23.88,26.34,3.76,5.11,7,9.53,8.69,10.82,3.47,2.68,7.91,14.29,4.61,22.51C191.32,66.84,187.42,71.3,178,71.3ZM154.6,6a6.31,6.31,0,0,0-4,2c-2.1,2.18-4.41,7.1-3.46,18.14l.08,1c1.92,22.3,3.31,38.42,27.46,41,8.22.87,13.42-1.28,15.47-6.38,2.81-7-1.16-17.1-3.67-19-2-1.55-5.21-5.9-9.27-11.41C170.66,22.41,161.73,10.28,154.6,6Z" transform="translate(2.45 1.5)" fill="#c0c0c0"/><path d="M371.23,147.24c-16.66,0-48.72-4-74.36-19.37-27-16.18-32.14-20.52-32.54-61.52-.39-40,20-67,20.21-67.26L286.92.91c-.2.26-20,26.47-19.59,65.41.38,39.49,4.76,43.23,31.08,59S358,144.6,373.5,144.21c14.91-.38,62.2-17.84,77.54-30.11C465.7,102.37,481.3,77,480.92,49c-.38-27.36-8.71-44.71-11.7-47.93l2.2-2c3.75,4.05,12.11,22.24,12.5,49.93.4,29.19-15.28,55-31,67.53-16,12.82-63.68,30.38-79.34,30.77Q372.46,147.24,371.23,147.24Z" transform="translate(2.45 1.5)" fill="#c0c0c0"/><path d="M379.39,88.28c-13.39,0-25.51-4.87-34.12-13.7-7.16-7.34-11.3-16.79-11.09-25.3.18-7.24,2-17.4,9.86-24.71,6.48-6.05,15.77-8.87,27.61-8.36,14.54.62,42.33,14.66,43.58,39.27.63,12.37-1.13,19.78-5.89,24.78C404.07,85.81,394.84,88.28,379.39,88.28ZM369,19.15c-9.79,0-17.48,2.56-22.89,7.61-7.06,6.6-8.74,15.93-8.91,22.59-.19,7.72,3.63,16.37,10.23,23.13,8,8.26,19.41,12.8,32,12.8,14.56,0,23.12-2.18,27.78-7.08,4.13-4.35,5.65-11.1,5.06-22.56-1.14-22.5-27.49-35.87-40.71-36.43h0C370.66,19.17,369.81,19.15,369,19.15Z" transform="translate(2.45 1.5)" fill="#c0c0c0"/><path d="M496.48,380.93a32.49,32.49,0,0,1-14.74-3.64c-9.25-4.69-21.37-7.77-34.21-11-25.88-6.57-55.21-14-76.66-37.29-31.88-34.61-67.51-55.69-114.67-78.5-47.63-23-67.79-43.35-76.31-56.33-3.67-5.6-11.16-12-18.39-18.19-9-7.68-16.73-14.31-17.57-19.47-1.61-9.85,10.45-17.65,19.39-19.27,3.68-.67,7.14-.21,11.94.43,7.17,1,17,2.26,35.06,1.11,4.33-.28,8.24-.6,11.69-.88,21-1.69,31.49-2.54,73.9,9.91,22.45,6.59,33.45,13.06,42.29,18.26,10.42,6.13,17.3,10.18,36.57,10.19,3.77,0,6.91.05,9.58.08,14.29.19,14.28.19,25.3-7.24,6.24-4.2,15.67-10.55,32.6-20.37,52.9-30.66,62.09-42.37,62.86-62,.42-10.79,7.3-19.43,13.95-27.8,5.87-7.38,11.42-14.35,11.42-21.78,0-15.52-27.59-35.72-27.87-35.93l1.76-2.42c1.19.86,29.11,21.32,29.11,38.35,0,8.47-5.87,15.85-12.07,23.65-6.35,8-12.92,16.24-13.3,26.05-.82,20.84-10.23,33.08-64.36,64.46-16.84,9.76-26.22,16.08-32.42,20.26-11.69,7.87-11.95,7.95-27,7.75-2.65,0-5.78-.07-9.55-.08-20.08,0-27.63-4.45-38.09-10.6-8.69-5.12-19.51-11.48-41.61-18-41.88-12.3-51.57-11.52-72.81-9.8-3.46.28-7.38.6-11.74.88-18.36,1.18-28.76-.21-35.64-1.13-4.7-.62-7.8-1-11-.45-7.74,1.41-18.19,8.28-17,15.84.66,4.07,8.74,11,16.56,17.67,7.39,6.33,15,12.87,19,18.82,8.31,12.67,28.09,32.54,75.11,55.28,47.47,23,83.36,44.21,115.57,79.16,20.84,22.62,49.71,30,75.19,36.42,13,3.3,25.28,6.42,34.83,11.26,12.08,6.13,22.31,2.75,28.76-1.16,14.17-8.59,23.85-27.66,24.08-47.47.3-26-2.21-29-8.29-36.15-1.7-2-3.64-4.3-5.87-7.45-11-15.45-13.55-23.12-11.6-57.54,1.2-21,7-45.78,11.72-65.71,3-12.84,5.64-23.93,6.24-30.73,1.06-11.93,9.31-47.61,26.48-57.05,5.75-3.16,11.88-3.1,18.24.19,15.66,8.09,11.78,28.48,8,48.19-3.06,16.08-5.94,31.27,1.35,39.05,10.49,11.17,13.35,12.7,13.69,12.81-.15-.05-.25.45-.61.76s-.07.36-.12.54l-.8.78c.58,1.27,1.73-.86.87-.28-1.24.83-1.49,2.06-15.22-12.56-8.34-8.89-5.31-24.8-2.1-41.66,3.54-18.63,7.21-37.9-6.47-45C566,71.37,561,71.29,556.07,74c-14.74,8.1-23.65,40.13-24.94,54.69-.63,7-3.26,18.2-6.31,31.15-4.66,19.82-10.46,44.48-11.64,65.19-1.9,33.48.55,40.87,11,55.63,2.17,3.05,4.06,5.28,5.72,7.25,6.59,7.79,9.31,11,9,38.13-.24,20.8-10.5,40.89-25.52,50A32.56,32.56,0,0,1,496.48,380.93Z" transform="translate(2.45 1.5)" fill="#c0c0c0"/><path d="M587.72,329.88c-8.11,0-17.45-1.61-24.85-8.29-8.29-7.49-12.49-20-12.49-37.35,0-45.29,44-67.52,44.47-67.73l1.29,2.81c-.43.2-42.76,21.54-42.76,64.92,0,16.41,3.87,28.23,11.5,35.12,9.09,8.22,21.77,8.65,30.48,7.76l.14,3C593.1,330.37,590.55,329.88,587.72,329.88Z" transform="translate(2.45 1.5)" fill="#c0c0c0"/><path d="M594.82,480.9c-.26,0-26.05-6.85-28.05-40.47-2-33.28,27.41-52.29,27.7-52.48l1.61,2.54c-.28.18-28.19,18.28-26.31,49.76,1.85,31.1,23.28,35.16,24.25,35.3Z" transform="translate(2.45 1.5)" fill="#c0c0c0"/><path d="M502.62,553.32c-1.09-.64-28.12-15.64-30.93-37.74-1.36-10.75,2.94-21.18,12.79-31,15.11-15.11,39.27-17.67,69.87-7.39,22.86,7.68,41.27,21.82,41.45,21.94l-1.46,2.68c-.73-.48-73.12-49.73-107.74-15.11-9.16,9.16-13.17,18.75-11.93,28.53,2.62,20.66,29.46,35.54,29.71,35.69Z" transform="translate(2.45 1.5)" fill="#c0c0c0"/><path d="M286.37,553.43l-2.06-2.18c34.4-32.51,69.41-47.59,104-44.84,50,4,82.77,44.27,83.09,44.68l-2.2,2c-.31-.4-32.54-39.87-81.16-43.73C354.33,506.72,320.12,521.54,286.37,553.43Z" transform="translate(2.45 1.5)" fill="#c0c0c0"/><path d="M200.07,345.92c-1.36,0-2.74,0-4.15-.08-48.24-1.9-68-32.45-81.09-52.67l-1.72-2.64c-2.9-4.45-6.6-7-11.34-7.74-13.93-2.22-33,11.57-46.12,22.13a103.93,103.93,0,0,0-10.21,9.62c-9,9.44-15,15.67-45.46,15.34l0-3c29.14.33,34.45-5.23,43.26-14.42a105.5,105.5,0,0,1,10.49-9.87c13.57-10.92,33.37-25.16,48.47-22.76,5.54.88,10.05,3.93,13.39,9.06l1.72,2.65c12.74,19.7,32,49.46,78.68,51.3,17.75.7,31.18-3.12,39.92-11.36,11.34-10.7,12.94-27.2,13.16-38.68.2-10.81-5.9-28.6-19.78-42.12-9.28-9-25.71-19.56-51.24-18.4-44.24,2-47.4-1.37-54.34-8.78-1.2-1.29-2.45-2.62-4.09-4.09a70.78,70.78,0,0,1-6.1-6.37c-7-7.91-14.18-16.1-43.35-18.23C33.78,192.15,1.29,219.17,1,219.44L-1,217.15c.34-.29,33.76-28.07,71.4-25.33,30.39,2.22,38,10.87,45.38,19.24a67.31,67.31,0,0,0,5.85,6.11c1.74,1.56,3.09,3,4.28,4.28,6.29,6.71,9.16,9.78,52,7.83,26.61-1.2,43.76,9.8,53.46,19.25,14.52,14.14,20.91,32.89,20.69,44.33-.23,12-1.94,29.32-14.11,40.8C229.37,341.81,216.62,345.92,200.07,345.92Z" transform="translate(2.45 1.5)" fill="#c0c0c0"/><path d="M195.15,553c-6.13-14.57-8.51-22.88-5.6-26.77,2.49-3.34,7.29-2.81,11.93-2.3a46.64,46.64,0,0,0,5,.38c1.77,0,3.55.13,5.42.26,9.48.67,20.22,1.43,37.72-13.32C270,494.07,272,473.9,258.52,421.32c-11.9-46.45-52.81-71.11-125.07-75.4C70.32,342.18,1.55,390,.86,390.45L-.86,388c.69-.49,70.31-48.87,134.49-45.06,34.34,2,62.28,8.92,83,20.46,23.3,13,38.37,32.2,44.77,57.18,13.83,54,11.62,74.85-9.85,93-18.43,15.54-30.31,14.7-39.86,14-1.82-.13-3.54-.26-5.21-.26a51.23,51.23,0,0,1-5.36-.39c-4-.44-7.73-.86-9.19,1.1-2.12,2.83.46,10.76,5.9,23.7Z" transform="translate(2.45 1.5)" fill="#c0c0c0"/><path d="M358.5,501.48c-22.74,0-35.75-4.61-53.71-16.72-29.74-20.08-25-52.76-17-87.33,8.72-37.62,21.28-60.39,57-57.68,11.29.85,20,4.91,25.86,12.05,10,12.21,8.19,28.91,8.1,29.61a18.32,18.32,0,0,0,4.14,14.21c5.4,6.1,15.36,8.78,29.6,8,15.43-.89,26.71-3.24,37.62-5.51,17-3.55,33.13-6.9,61.39-3.33,12,1.52,19.19,5.73,21.4,12.51,5,15.51-18.3,40.43-32.66,53.9-1.19,1.12-2.35,2.23-3.5,3.33-14.76,14.14-27.51,26.36-85.16,32.83C388.55,499.89,371.85,501.48,358.5,501.48ZM339.41,342.54c-29.68,0-40.79,21.4-48.7,55.57-7.77,33.5-12.4,65.15,15.76,84.16,27.83,18.78,42.46,19.05,104.75,12.06,56.65-6.36,69.06-18.25,83.43-32q1.73-1.67,3.52-3.35c23.55-22.1,35.16-40.62,31.85-50.79-1.81-5.59-8.18-9.1-18.91-10.46-27.77-3.51-42.9-.36-60.41,3.29-11,2.29-22.41,4.66-38.05,5.56-15.24.88-26-2.15-32.06-9A21,21,0,0,1,375.76,381c.09-.86,1.56-16.39-7.46-27.33-5.34-6.47-13.33-10.16-23.76-10.95C342.78,342.61,341.06,342.54,339.41,342.54Z" transform="translate(2.45 1.5)" fill="#c0c0c0"/><path d="M446.67,460a39.71,39.71,0,0,1-4-.27c-1.58-.15-3.22-.32-5.12-.32-1.48,0-14.43-.18-15.93-6.32-1.14-4.65,4.7-10.12,18.36-17.19h0c20.38-10.56,25.43-8.33,29.91-4.32l.26.24a6,6,0,0,1,2.19,4.54c.08,3.84-3.23,8.78-10.73,16C455,458.71,450.8,460,446.67,460Zm-5.32-21.44c-16.64,8.62-17.09,12.76-16.83,13.82.61,2.49,7.23,4,13,4a51.43,51.43,0,0,1,5.41.34c5.33.53,8.85.88,16.57-6.55,6.57-6.33,9.87-11,9.81-13.78a3.07,3.07,0,0,0-1.18-2.36l-.27-.25c-3-2.67-6.37-5.69-26.53,4.75Z" transform="translate(2.45 1.5)" fill="#c0c0c0"/><path d="M353.25,465.66a27.08,27.08,0,0,1-19.79-8.4c-4.74-5.17-6.78-11.89-5.9-19.43.67-5.76,3-9.68,6.82-11.66,7.56-3.88,19.07.82,27.4,5.45h0c13.47,7.48,14.89,14.81,13.72,19.64-2,8.16-12.89,14.13-21.43,14.39ZM341,427.74a11.34,11.34,0,0,0-5.22,1.1c-2.91,1.49-4.67,4.63-5.21,9.33-.77,6.66,1,12.55,5.13,17.06A24.08,24.08,0,0,0,354,462.65c7.44-.22,17-5.44,18.6-12.1,1.33-5.47-2.91-11.12-12.26-16.31C352.6,430,346,427.74,341,427.74Z" transform="translate(2.45 1.5)" fill="#c0c0c0"/><path d="M443.14,319.11c-18.1,0-32.18-3.3-66.94-37.11-25.63-24.93-35.28-40.53-31.3-50.61,3.07-7.74,13.89-11.51,34.07-11.87,38.85-.68,42.33-2.79,51.62-8.43,1.17-.71,2.43-1.47,3.86-2.29l2.63-1.53c11.58-6.73,21.59-12.55,29.3-3.62s3,39.27,2.69,41c-4.48,38.4-4.43,38.48-2.09,42.35a32.37,32.37,0,0,1,2,3.64c.52,1.14,1.17,2.4,1.86,3.73,3.09,6,6.94,13.44,3.69,18.78-2.36,3.88-7.94,5.76-17.06,5.76-2.75,0-5.32.06-7.8.11C447.4,319.06,445.24,319.11,443.14,319.11ZM457,202.1c-4.69,0-10.51,3.19-18.38,7.77l-2.65,1.53c-1.4.81-2.64,1.56-3.79,2.26-9.53,5.77-13.47,8.16-53.12,8.86-18.56.33-28.81,3.6-31.34,10-3.38,8.55,6.63,24,30.6,47.35C416.18,316.71,428,316.46,449.58,316c2.5,0,5.08-.11,7.86-.11,7.87,0,12.75-1.45,14.5-4.32,2.37-3.9-1.05-10.52-3.8-15.84-.7-1.37-1.37-2.66-1.92-3.86a30.86,30.86,0,0,0-1.8-3.34c-2.9-4.78-2.88-5.19,1.67-44.28v-.07c1.38-8.49,3.71-32-2-38.59A9,9,0,0,0,457,202.1Z" transform="translate(2.45 1.5)" fill="#c0c0c0"/><path d="M217.83,494.92c-9.46,0-15.17,0-35.91-26.33-17.43-22.13-20.55-22.36-25.73-22.76-.8-.06-1.62-.12-2.57-.25-3.71-.51-12.08,1.43-20.18,3.3-7.46,1.73-15.17,3.52-20.88,3.89-5.5.35-9.74-1.08-14.22-2.6-5.9-2-12.58-4.25-24.33-3.47-4,.26-8.53.88-13.32,1.54C40.45,451,15.26,454.5,11.52,431.61A22.06,22.06,0,0,1,17,413c14.45-16.85,56.13-25.81,117.37-25.23,41,.39,61.58,1.67,75.32,8.28,14.62,7,20.88,20.34,29.47,41.43,9.58,23.53,5.62,37.34.61,44.79C233.46,491.53,223.2,494.92,217.83,494.92ZM152.26,442.5a12,12,0,0,1,1.77.11c.86.11,1.64.17,2.39.23,6.49.49,10.38,1.72,27.86,23.89,19.84,25.19,25,25.19,33.55,25.19,4.55,0,13.84-3.09,19.41-11.37,6.6-9.82,6.29-24.33-.9-42-17.26-42.41-21.84-47.09-102-47.85-60.33-.56-101.2,8-115.07,24.18a19.2,19.2,0,0,0-4.75,16.22c3.27,20,25.86,16.9,45.8,14.15,4.84-.67,9.42-1.3,13.53-1.57,12.34-.8,19.33,1.55,25.49,3.63,4.37,1.48,8.16,2.76,13.07,2.44,5.47-.35,13-2.11,20.39-3.81C140.42,444.19,147.7,442.5,152.26,442.5Z" transform="translate(2.45 1.5)" fill="#c0c0c0"/><path d="M114.08,552.52c0-.15-1.94-3.53-3.87-14.35-2-11.06-22.11-48.4-36.92-55.1-8.65-3.91-16.21-2.91-26.68-1.52a146.35,146.35,0,0,1-27.48,1.66c-18.11-.8-21-2.82-21.51-4.89a2.84,2.84,0,0,1,1.68-3l1.26,2.37L0,476.63l.55,1a.54.54,0,0,0-.08-.17c.17.2,2.16,2,18.79,2.75a143.18,143.18,0,0,0,27-1.64c10.55-1.39,18.88-2.49,28.31,1.77,15.87,7.18,36.52,45.5,38.63,57.3,1.92,10.76,3.93,14.5,3.94,14.53Z" transform="translate(2.45 1.5)" fill="#c0c0c0"/><path d="M62,553.61c-17.28-30.73-62.21-52-62.67-52.19l1.34-2.74c1.88.88,46.28,21.87,64.05,53.47Z" transform="translate(2.45 1.5)" fill="#c0c0c0"/><path d="M566.23,372.49a4.56,4.56,0,0,1-2.71-.87,6.42,6.42,0,0,1-2.17-6.32c.65-4.06,4.09-7.47,9.19-9.12,4.77-1.54,6.52-.05,7.14,1.47,1.67,4.06-4.37,11.91-8.83,14.18A5.87,5.87,0,0,1,566.23,372.49Zm7.8-14a8.73,8.73,0,0,0-2.57.51h0c-4,1.29-6.68,3.81-7.15,6.73a3.58,3.58,0,0,0,1,3.42,2,2,0,0,0,2.21,0c4.14-2.11,8.11-8.64,7.41-10.35C574.85,358.65,574.57,358.53,574,358.53Z" transform="translate(2.45 1.5)" fill="#c0c0c0"/><path d="M8.47,296.67c-3.9,0-6.24-1.09-7-3.25-.92-2.79.29-8.3,21.33-23.94,1.24-1.43,12.86-14.81,19.43-22.5,7.07-8.29,20.91-19.51,30.07-16.45a2.9,2.9,0,0,1,2.11,2.26c.79,4.3-8.92,12.59-25,25.74C43,263.77,37,268.72,34.35,271.6c-2.37,2.59-4.8,5.85-7.16,9C21,288.86,15.18,296.67,8.47,296.67ZM69,233c-7.45,0-18.36,8.82-24.42,15.91C37.64,257,25.14,271.42,25,271.57l-.24.22C4,287.25,4.12,291.74,4.37,292.48s1.81,1.19,4.1,1.19c5.21,0,10.86-7.56,16.32-14.87,2.4-3.2,4.88-6.52,7.35-9.23,2.77-3,8.91-8.05,15.42-13.37,8.43-6.88,24-19.65,24-22.78l-.12,0A7.62,7.62,0,0,0,69,233Z" transform="translate(2.45 1.5)" fill="#c0c0c0"/><path d="M187.78,308.77c-14.16,0-28-10.56-28.43-21.73-.18-4.52,1.94-9.37,5.81-13.3,5.57-5.66,13.82-8.76,22.66-8.56,21.39.53,23.13,17,23.7,22.42.41,3.94-1.58,8.89-5.2,12.91A25,25,0,0,1,187.78,308.77Zm-.82-40.6c-7.71,0-14.84,2.77-19.66,7.67-3.29,3.35-5.1,7.38-5,11.08.34,8.53,11.76,18.85,25.43,18.85a22,22,0,0,0,16.31-7.27c3.07-3.41,4.77-7.46,4.44-10.59-.87-8.27-4-19.32-20.79-19.73H187Z" transform="translate(2.45 1.5)" fill="#c0c0c0"/><path d="M273.61,219.43a23.54,23.54,0,0,1-8.32-1.69c-7.47-2.87-14.91-7.87-13.6-12.07,1.06-3.4,6.88-3.84,17.29-1.32h0c7.29,1.76,12,4.8,12.85,8.32a4.65,4.65,0,0,1-1.54,4.72A10,10,0,0,1,273.61,219.43Zm-15.39-13.69c-3.11,0-3.66.81-3.66.83-.3.94,2.89,4.94,11.8,8.37,5.82,2.24,10.27,1.67,11.94.2a1.67,1.67,0,0,0,.62-1.75c-.43-1.74-3.48-4.39-10.65-6.13h0A44.53,44.53,0,0,0,258.22,205.74Z" transform="translate(2.45 1.5)" fill="#c0c0c0"/><path d="M366.66,136.63h-2.12c-27.7-.38-50.56-9.77-66.12-27.13-12.79-14.27-20.32-33.4-21.21-53.86C275.64,19.46,295.74-.26,296.6-1.08l2.08,2.16c-.2.19-20,19.67-18.47,54.42,1.54,35.52,24.56,77.29,84.37,78.12,27.77.39,54-6.9,73.87-20.51,18.21-12.48,29.43-29.13,30.76-45.67,2.64-32.65-6.74-55.72-16.4-66.44L455-1c10.08,11.17,19.87,35.08,17.16,68.68-1.41,17.45-13.09,34.91-32.06,47.9C420.27,129.19,394.25,136.63,366.66,136.63Z" transform="translate(2.45 1.5)" fill="#c0c0c0"/><path d="M378.37,126.36c-2.61,0-5.29-.07-8.07-.23-30.67-1.74-52.8-11-65.78-27.62-11.29-14.44-14.06-32.26-15.21-46.17C286.94,23.67,309.45,0,310.41-1L312.57,1c-.23.23-22.53,23.76-20.27,51.05,2.74,33.09,14.16,67.41,78.17,71.05,28.93,1.64,52.68-5.72,68.69-21.27,15.23-14.82,20.27-33.82,19.9-46.66-.77-27-17.21-48.46-25.84-53.94l1.61-2.54c9.1,5.79,26.43,28.27,27.23,56.4.39,13.47-4.88,33.4-20.81,48.89C430.51,114.45,411.08,126.36,378.37,126.36Z" transform="translate(2.45 1.5)" fill="#c0c0c0"/><path d="M372.72,116.78A73,73,0,0,1,321.54,96c-13.35-12.94-21.11-30.09-21.31-47.06a59.89,59.89,0,0,1,25.7-50.22l1.56,2.56a56.85,56.85,0,0,0-24.26,47.63c.19,16.17,7.62,32.55,20.4,44.94a70.15,70.15,0,0,0,50.46,19.92c26.48-.5,50.32-9.3,63.77-23.54,7.61-8.06,11.43-17.6,11.06-27.59-1.15-30.24-18.47-56.53-33.3-61.21l.9-2.86c16.12,5.08,34.18,32,35.39,64,.41,10.81-3.69,21.1-11.87,29.76-14,14.81-38.62,24-65.89,24.48Z" transform="translate(2.45 1.5)" fill="#c0c0c0"/><path d="M376.3,107q-1.12,0-2.22,0c-15.73-.46-30.23-5-40.82-12.78C319.4,84.06,312.09,68.83,311.55,49,310.36,5.28,342.1-1.41,342.42-1.47L343,1.47c-1.21.24-29.57,6.34-28.45,47.42,1.35,49.55,46,54.72,59.62,55.12,17,.51,40.15-5,53.74-18.3a35.94,35.94,0,0,0,11.25-26.92C438.78,25.27,404.33,1.5,393.44,1.5v-3c13.93,0,48.33,26.08,48.72,60.26A38.82,38.82,0,0,1,430,87.85C416.38,101.23,393.66,107,376.3,107Z" transform="translate(2.45 1.5)" fill="#c0c0c0"/><path d="M381.62,98.33l-2.65,0c-45.92-1-58.05-33-58.05-49.76,0-9,3.57-22.78,13.64-32.16,9-8.42,21.67-12.11,37.52-11,18,1.29,34.06,9.08,45.1,22,7.75,9,12.35,20,11.71,27.93-.07.86-.14,1.76-.2,2.71C427.67,73.16,426,98.33,381.62,98.33Zm-15-90.12c-12.54,0-22.62,3.47-30,10.36-9.37,8.73-12.69,21.6-12.69,30,0,15.76,11.51,45.82,55.11,46.76,44.1,1,45.63-22.19,46.67-37.5.06-1,.13-1.88.2-2.75.47-5.88-2.74-16.12-11-25.74-6.09-7.09-19.78-19.25-43-20.91C370.08,8.27,368.33,8.21,366.63,8.21Z" transform="translate(2.45 1.5)" fill="#c0c0c0"/><path d="M380.11,78.25c-1.08,0-2.2,0-3.37-.12-24.32-1.66-32.95-18.82-32.68-29.24.14-5.53,2.46-23.6,26.29-24.1h0c12.31-.25,22,3,28,9.37a24.68,24.68,0,0,1,6.68,18.72C404.3,63.92,400.79,78.25,380.11,78.25Zm-9.69-50.46c-20.6.43-23.2,15-23.37,21.18-.24,9.31,7.66,24.65,29.89,26.17,20.66,1.42,24.3-10.57,25.15-22.47a21.78,21.78,0,0,0-5.87-16.44c-5.47-5.76-14.4-8.67-25.8-8.44Z" transform="translate(2.45 1.5)" fill="#c0c0c0"/><path d="M377.44,67.86l-1.42,0c-15.42-.66-18.73-6.32-20-18-.44-4.19.64-7.61,3.21-10.15,3.93-3.87,10.35-4.64,15.05-4.07h0c16.09,2,19.47,10.39,19.47,17.12,0,4.65-1.43,8.48-4.12,11.06S382.75,67.86,377.44,67.86Zm-5.93-29.37c-3.5,0-7.6.86-10.15,3.37-1.89,1.86-2.68,4.45-2.33,7.69,1.06,9.94,3.1,14.69,17.12,15.29,5.14.21,9-.85,11.42-3.18,2.12-2,3.2-5,3.2-8.89,0-8-5.66-12.78-16.83-14.14h0A20.53,20.53,0,0,0,371.51,38.49Z" transform="translate(2.45 1.5)" fill="#c0c0c0"/><path d="M16.05,185.58C5.11,185.58-.38,183.09-.63,183l1.26-2.72c.06,0,6.61,2.94,19.65,2.2,16-.91,41.23-11.3,63.72-37.69,16.6-19.46,20.3-38,22.29-47.94,1.17-5.8,1.8-9,4.26-9.58,2.17-.53,3.34,1.37,5,4,4.46,7.22,14.9,24.13,61.21,32.16,20.48,3.55,36.34.38,47.12-9.41C240.71,98.66,239,73.24,239,73l-.1-1.37c-.75-10.58-2-28.28-31.64-70.75l2.46-1.72c30.12,43.16,31.4,61.37,32.17,72.26l.1,1.35c0,.27,1.84,27.15-16.1,43.45-11.51,10.45-28.21,13.86-49.65,10.15-47.64-8.27-58.58-26-63.25-33.55a16.42,16.42,0,0,0-1.78-2.58c-.64.66-1.33,4.12-1.94,7.19-2,10.22-5.86,29.25-22.95,49.3C57.2,180.83,28.54,185,20.45,185.45,18.9,185.54,17.43,185.58,16.05,185.58Z" transform="translate(2.45 1.5)" fill="#c0c0c0"/><path d="M246.3,51.42c-3.78,0-7.6-4.59-9.24-11.2C234.4,29.52,218.63,1,218.47.73l2.62-1.46C221.75.46,237.22,28.42,240,39.5c1.49,6,4.8,9.1,6.51,8.91,1.12-.12,2.49-2,2.64-6.93.37-13.06,3.37-24.46,11-42.08L262.91.6c-7.6,17.45-10.42,28.17-10.8,41-.23,8.08-3.43,9.62-5.31,9.83Z" transform="translate(2.45 1.5)" fill="#c0c0c0"/><path d="M240.55,26.46c-1.64,0-3.81-1.35-8.25-13.37C230,6.84,228.12.49,228.1.42L231-.42c3.12,10.6,7.67,22.59,9.72,23.86,1.35-.4,3.34-5.57,5.11-10.14,1.51-3.92,3.39-8.8,5.89-13.95l2.7,1.3c-2.44,5-4.3,9.86-5.79,13.73-2.86,7.4-4.59,11.88-7.86,12.08Z" transform="translate(2.45 1.5)" fill="#c0c0c0"/><path d="M185.18,106.22a65.56,65.56,0,0,1-31.29-8.1C130,85,126.6,73.82,122,58.33c-4.71-15.72-.24-56.76,0-58.5l3,.34c0,.41-4.59,42.16,0,57.3,4.44,14.81,7.65,25.5,30.5,38,22,12.06,46.85,8.21,53.6.36,6.31-7.32,13.75-19.44,5.55-40.13-8-20.31-30.06-54.56-30.28-54.91l2.52-1.62c.22.34,22.4,34.85,30.55,55.43,6.6,16.66,4.62,30.79-6.06,43.19C207,102.67,197.16,106.22,185.18,106.22Z" transform="translate(2.45 1.5)" fill="#c0c0c0"/><path d="M183.94,96.89c-9.58,0-15.81-3.43-27.62-9.93l-1.65-.91c-14.34-7.89-22.15-18.59-26.11-35.79-3.9-17-2-49-2-50.35l3,.18c0,.33-1.92,32.95,1.89,49.49,3.74,16.29,11.11,26.4,24.62,33.84l1.66.91c12.33,6.79,18,9.9,27.63,9.54,10.75-.4,22.52-9,23.17-24.13.71-16.41-4.29-24.28-34.52-68.9l2.48-1.68c30.72,45.32,35.79,53.33,35,70.71-.73,16.93-14,26.55-26.06,27Z" transform="translate(2.45 1.5)" fill="#c0c0c0"/><path d="M180.67,83.62c-4.41,0-20.9-1.34-36.53-20.08-14.28-17.11-7.31-61.88-7-63.78l3,.48c-.07.45-7.06,45.32,6.35,61.38,13.21,15.83,28.22,19.39,35,19,6.12-.36,17.71-5,17.71-20,0-13.43-3.08-16.72-8.18-22.18-.75-.8-1.54-1.65-2.37-2.57l-1.84-2.05C179.91,26.23,168.43,13.52,163,.58l2.77-1.16C171,11.88,182.26,24.36,189,31.81l1.86,2.07c.81.9,1.59,1.73,2.32,2.52,5.41,5.79,9,9.62,9,24.23,0,17.21-13.43,22.55-20.54,23Z" transform="translate(2.45 1.5)" fill="#c0c0c0"/><path d="M172.82,60.45h-.06c-2.32,0-8.37-1-14.68-9.65-8-11-3-22.43-2.51-23.53a4.45,4.45,0,0,1,3.71-2.65c2.21-.31,8.23.2,16.45,11.65,9.56,13.3,4.54,19.19,2.4,21.71-.18.21-.34.39-.47.56A6,6,0,0,1,172.82,60.45ZM158.3,28.5c-.2.43-5,10.71,2.2,20.54,5.51,7.55,10.42,8.39,12.28,8.41h.05a3.35,3.35,0,0,0,2.43-.71c.16-.21.36-.44.59-.71,1.82-2.15,5.63-6.61-2.56-18-5.93-8.27-10.91-10.8-13.59-10.43a1.61,1.61,0,0,0-1.34.77Z" transform="translate(2.45 1.5)" fill="#c0c0c0"/><path d="M360.84,158c-11.85,0-21.39-1.82-26-4.93-4.95-3.35-17.72-9.44-31.24-15.9-14.68-7-29.86-14.24-35.84-18.41-11.05-7.73-11.59-17.74-13.19-47.45q-.18-3.37-.38-7.11c-2-35.19,16.43-64.74,16.62-65L273.34.8c-.18.29-18.06,29.05-16.16,63.26.14,2.5.27,4.86.39,7.12,1.58,29.39,2.05,38.26,11.91,45.15,5.77,4,20.84,11.21,35.41,18.17,13.62,6.5,26.49,12.64,31.63,16.11,9.73,6.57,50.25,7.3,82.39-9l.9-.46c31.31-15.84,60.89-30.81,65.41-61.5,4.7-31.83,3.06-62.87-4.17-79.07l2.74-1.22c7.45,16.68,9.17,48.37,4.4,80.73s-35,47.53-67,63.74l-.91.46C401.08,154,378.42,158,360.84,158Z" transform="translate(2.45 1.5)" fill="#c0c0c0"/><path d="M186.53,226.77c-3.12,0-7-.26-11.73-.6a124.69,124.69,0,0,0-13.87-.53c-1.58.1-3.14.24-4.65.38-10.69,1-20.79,1.86-32.19-14.05-12.44-17.37-15.87-21.1-38.65-22.62-3.39-.23-6.52-.56-9.56-.87-18.16-1.92-32.51-3.42-75.17,19.43l-1.42-2.65c43.47-23.28,59-21.65,76.9-19.77,3,.32,6.12.65,9.45.87,24,1.6,28.28,6.27,40.89,23.86C136.93,224.74,145.35,224,156,223c1.53-.14,3.12-.28,4.74-.38a123.37,123.37,0,0,1,14.26.53c6,.44,15.92,1.16,17.38-.18-.09-.29-.63-1.41-3.94-3.84-11.72-8.62-15.42-14.76-18.39-19.69a34.87,34.87,0,0,0-3.69-5.34,67.92,67.92,0,0,0-7.55-6.38c-7.25-5.63-17.16-13.35-23.41-23.71-3.6-6-4.22-12.18-1.81-18,3-7.08,10.45-13,19.1-15.1,8.49-2.06,20.45-.38,31,1.09a119,119,0,0,0,15,1.55c4.53,0,10.46-.91,17.33-1.93,9.26-1.37,19.76-2.93,29.54-2.7,16.28.38,32.31,1.79,63.78,15.37,9.52,4.1,17.13,7.92,23.85,11.28C348,163.05,357.82,168,372.3,168h3.13c19.6,0,28.54,0,39.27-9.29,9.12-7.87,9.12-7.87,20.87-14.46,3.56-2,8-4.49,14.13-8,24-13.74,37.73-27.72,44.59-45.33,1.68-4.34,2.83-8,3.94-11.59,3-9.52,5.31-17,15.45-28.6,4.51-5.16,6.49-9.38,6.06-12.91-.53-4.36-4.83-7.36-9-10.27l-1.9-1.33c-8-5.77-18-24.68-18.4-25.48l2.66-1.4c.1.19,10.07,19.09,17.5,24.44.6.44,1.22.87,1.85,1.31,4.49,3.13,9.57,6.67,10.26,12.37.54,4.43-1.68,9.41-6.79,15.24C506.22,63.76,504,71,501.1,80.18c-1.08,3.45-2.29,7.35-4,11.78-7.12,18.3-21.27,32.75-45.89,46.85-6.14,3.52-10.58,6-14.16,8-11.48,6.44-11.48,6.44-20.37,14.11-11.57,10-21.48,10-41.22,10H372.3c-15.19,0-25.25-5-40.44-12.64-6.68-3.34-14.26-7.13-23.7-11.21-31-13.36-46.7-14.75-62.66-15.12-9.53-.22-19.89,1.31-29,2.67-7,1-13,1.93-17.76,2a127.7,127.7,0,0,1-15.42-1.57C173,133.61,161.34,132,153.4,133.9c-7.75,1.88-14.44,7.11-17,13.33-2,4.87-1.48,10.15,1.61,15.26,6,9.89,15.62,17.4,22.68,22.89a67.52,67.52,0,0,1,7.94,6.75,36.77,36.77,0,0,1,4,5.79c2.83,4.7,6.36,10.56,17.6,18.82,4.25,3.12,5.74,5.3,5,7.29S191.53,226.77,186.53,226.77Z" transform="translate(2.45 1.5)" fill="#c0c0c0"/><path d="M.66,198.18l-1.32-2.7c3.93-1.91,4.16-2.93,4.16-2.94-.22-.37-2.1-1.09-3.72-1.32l.44-3c1.35.19,5.81,1.06,6.24,3.88C6.88,194.79,3.58,196.76.66,198.18Z" transform="translate(2.45 1.5)" fill="#c0c0c0"/><path d="M156,219.82c-12.9,0-15.15-2.6-20.15-10.5-.79-1.26-1.69-2.68-2.75-4.24l-1-1.54c-7-10.38-13-19.35-37.15-20.43-16.4-.74-21.48-1.29-23.52-3.54-1.22-1.34-1.13-3-1-4.76,0-.54.06-1.13.06-1.79,0-4.47,7.24-11.26,15.62-19.13,5.65-5.31,11.5-10.79,14.73-15.3,4-5.63,6-12.8,7.66-18.56s2.73-9.76,5.26-11.15c4.31-2.38,7.67.64,11.91,4.46,1,.93,2.22,2,3.5,3.06h0c1.74,1.46,4.88,2.38,7.64,3.18,4,1.16,7.42,2.16,8,4.86.39,1.91-.82,3.9-3.93,6.43-12,9.82-14.37,21.2-7.75,38,5.33,13.57,17.93,22.47,28.06,29.62,4.29,3,8,5.66,10.47,8.18,3.49,3.56,5.6,6.45,4.57,9-1.16,2.84-5.42,3.84-17.53,4.11ZM116.71,111.05a3.24,3.24,0,0,0-1.61.46c-1.43.78-2.65,5.13-3.82,9.33-1.68,6-3.77,13.43-8.11,19.5-3.4,4.74-9.36,10.33-15.11,15.74-6.88,6.45-14.68,13.77-14.68,16.94,0,.71,0,1.36-.07,1.95-.07,1.42-.09,2.19.27,2.58,1.28,1.42,7.93,2,21.43,2.56,25.63,1.15,32.37,11.16,39.51,21.76l1,1.53c1.09,1.6,2,3,2.81,4.32,4.68,7.4,5.94,9.38,20.12,9.07,9.31-.2,14.3-1,14.82-2.24.15-.37.07-1.66-3.93-5.74-2.28-2.33-5.89-4.88-10.07-7.83-9.89-7-23.45-16.57-29.11-31-7.09-18-4.42-30.82,8.64-41.47,3-2.44,2.91-3.4,2.89-3.5-.18-.92-3.6-1.92-5.86-2.58-3.05-.89-6.5-1.89-8.72-3.75h0c-1.33-1.11-2.53-2.19-3.58-3.14C120.29,112.63,118.45,111.05,116.71,111.05Z" transform="translate(2.45 1.5)" fill="#c0c0c0"/><path d="M134,189.57c-1,0-1.88-.88-3.52-2.43-3.94-3.72-12.12-11.46-25.12-12.23-3.81-.22-7.23-.18-10-.15-5.85.06-9.09.1-10.14-2.25-1.2-2.69,1.18-6.18,13.44-19.62,14.29-15.68,16.79-24.64,18-28.95.61-2.18,1.24-4.44,3.93-3.9s8,2.66,9.8,6.92c1.14,2.75.62,5.77-1.52,9a50.89,50.89,0,0,1-3.62,4.78c-2.27,2.71-2.51,3-2.42,13.16h0c.1,10.88,5.79,20.14,9.55,26.27,2.08,3.37,3.45,5.6,3.45,7.3a1.93,1.93,0,0,1-1.1,1.95A1.74,1.74,0,0,1,134,189.57ZM98.63,171.73c2.08,0,4.4,0,6.9.19,12.36.72,20.6,7.17,25.26,11.42l-1-1.61c-3.94-6.41-9.9-16.1-10-27.81h0c-.1-10.86.26-11.71,3.12-15.12a46.77,46.77,0,0,0,3.42-4.52c1.56-2.33,2-4.4,1.25-6.17-1.18-2.85-5.11-4.6-7.53-5.11a17.11,17.11,0,0,0-.54,1.74c-1.26,4.53-3.88,14-18.66,30.17C96.24,160,87.6,169.47,88,171.31c.55.52,4.17.48,7.36.45C96.34,171.74,97.45,171.73,98.63,171.73Z" transform="translate(2.45 1.5)" fill="#c0c0c0"/><path d="M106.72,168.7c-4.69,0-7.12-.86-8-2.79-1.19-2.56,1-5.74,5.23-10.39,4.39-4.84,7-6.52,9.13-5.77,2.4.85,2.6,4.31,2.8,8a15.92,15.92,0,0,0,.83,3.92c.53,1.72,1,3.34,0,4.76s-3.37,2.1-8.5,2.27Zm5.3-16.14c-.07,0-1.36,0-5.86,5h0c-4.39,4.84-5,6.54-4.73,7.11.06.13.73,1.21,6.69,1,5.16-.17,6-.82,6.15-1a5.69,5.69,0,0,0-.44-2.14,19.13,19.13,0,0,1-1-4.63C112.79,156.31,112.6,153,112,152.56Z" transform="translate(2.45 1.5)" fill="#c0c0c0"/><path d="M155.59,212.84a31.74,31.74,0,0,1-3.93-.26c-5.45-.79-10.23-7-11.26-10.13a2.65,2.65,0,0,1,.34-2.88,2.09,2.09,0,0,1,2.25-.4h0c18.73,6.31,19.78,9,19.3,11S158.4,212.84,155.59,212.84Zm-11.88-10.26c1.29,2.4,4.67,6.5,8.38,7a19,19,0,0,0,7-.15C158.17,208.62,155,206.48,143.71,202.58Z" transform="translate(2.45 1.5)" fill="#c0c0c0"/><path d="M239.62,124.79c-3.7,0-5.81-.76-6.8-2.37-1.66-2.71.67-6.34,3.61-10.93,1-1.54,2-3.13,2.92-4.76,2.25-4,2.72-7.87,3.14-11.28.51-4.22,1-8.21,5.18-10a3.76,3.76,0,0,1,3.58-.11c1.53,1,1.56,3,1.61,6.19.07,4.3.18,10.8,4,18l1.27,2.38c3,5.55,4.21,7.84,3.13,9.76s-3.44,2-8.71,2.28c-2.36.13-5.3.3-8.9.66h0C242.13,124.72,240.79,124.79,239.62,124.79Zm3.73-3.21.15,1.49-.15-1.49c3.67-.36,6.64-.53,9-.67,2.86-.16,5.81-.33,6.29-.79.13-.65-1.48-3.65-3.18-6.83-.39-.74-.82-1.53-1.28-2.39-4.15-7.84-4.27-14.77-4.35-19.36a18.89,18.89,0,0,0-.25-3.64,4.44,4.44,0,0,0-.74.25c-2.5,1.1-2.89,3.38-3.41,7.66-.42,3.51-1,7.86-3.49,12.39-1,1.71-2,3.33-3,4.9-1.9,3-4.26,6.64-3.58,7.75C235.59,121.19,236.77,122.23,243.35,121.58Z" transform="translate(2.45 1.5)" fill="#c0c0c0"/><path d="M505.27,52.41h0c-4.25,0-7.58-6.21-8.68-12.28-1.38-7.6,1.27-10.6,3-11.7,2.23-1.45,5.22-1.27,7.81.48,3.16,2.15,6.05,6.92,4.65,13.89C510.4,50.73,507.46,52.41,505.27,52.41Zm-2.4-21.95a3.1,3.1,0,0,0-1.71.48c-1.83,1.19-2.44,4.35-1.66,8.65h0c1,5.6,3.87,9.8,5.76,9.82h0c1.14,0,2.72-1.89,3.78-7.2,1.1-5.53-1-9.21-3.4-10.81A5,5,0,0,0,502.87,30.46Z" transform="translate(2.45 1.5)" fill="#c0c0c0"/><path d="M594.05,165.24c-.45-.45-10.84-13.11-12-23.65-.59-5.14,1.6-15.91,3.92-27.31,2.48-12.2,5.05-24.81,4.66-32.07-.43-7.86-4.56-11.57-11.41-17.7a125.68,125.68,0,0,1-17.62-18.58C545.78,25.24,516.5,1.4,516.2,1.17l1.89-2.34c.3.25,29.86,24.31,45.85,45.29a122.14,122.14,0,0,0,17.24,18.15c6.91,6.2,11.9,10.67,12.39,19.78.42,7.64-2.19,20.45-4.71,32.83-2.27,11.16-4.42,21.7-3.88,26.36,1.1,9.52,10.58,21.35,10.69,21.45Z" transform="translate(2.45 1.5)" fill="#c0c0c0"/><path d="M593.69,59.22C581.93,41,535.4,1.55,534.92,1.16l1.91-2.32c1.94,1.6,47.5,40.25,59.5,58.83Z" transform="translate(2.45 1.5)" fill="#c0c0c0"/><path d="M585.22,16.5C564.13,16.5,550.88,1.15,550.73,1L553-1c.17.19,16.7,19.27,41.91,13.31l.69,2.92A45.17,45.17,0,0,1,585.22,16.5Z" transform="translate(2.45 1.5)" fill="#c0c0c0"/><path d="M576.83,3.53a15.22,15.22,0,0,1-7.42-2.27L571-1.26,570.22,0,571-1.26c.06,0,6.09,3.83,9.85.18L583,1.08A8.57,8.57,0,0,1,576.83,3.53Z" transform="translate(2.45 1.5)" fill="#c0c0c0"/><path d="M196.69,338.13c-1.36,0-2.74,0-4.16-.09-27.12-1.16-42.14-5.75-59.44-29.9-9.74-13.6-12.21-21.11-13.85-26.09-1.16-3.53-1.8-5.48-4.38-7.54-6-4.82-27.35-2.55-40.1,6.28-5.32,3.69-11.43,9.11-17.89,14.85-9.23,8.19-18.78,16.66-27.58,21.53A53.54,53.54,0,0,1-.17,324l.34-3a51.47,51.47,0,0,0,27.67-6.46c8.51-4.7,17.93-13.06,27-21.14,6.54-5.81,12.72-11.29,18.18-15.07,13.13-9.1,36-12.33,43.69-6.17,3.27,2.62,4.14,5.28,5.35,8.95,1.58,4.8,4,12.06,13.44,25.28C152.21,329.67,166,333.9,192.66,335c26,1.1,41.75-8.49,49.42-30.22,7.4-20.95-10.85-46.29-25.52-56.82-13.89-10-36.74-12.12-67.92-6.38-27.47,5.06-33.56-9.59-36.83-17.47-.4-1-.75-1.79-1.08-2.45s-.69-1.53-1-2.39c-2.71-6.65-7.22-17.81-42.09-17.3-39,.55-66.17,33.67-66.44,34l-2.34-1.88c.28-.34,28.3-34.55,68.73-35.12,36.92-.49,41.92,11.81,44.91,19.17.33.8.64,1.56,1,2.17.37.76.74,1.64,1.16,2.65,3.15,7.59,8.43,20.29,33.51,15.67,32-5.89,55.64-3.58,70.22,6.89,15.86,11.39,34.6,37.61,26.6,60.26C237.15,327.78,221.77,338.12,196.69,338.13Z" transform="translate(2.45 1.5)" fill="#c0c0c0"/><path d="M.2,319.1l-.4-3c24.29-3.28,31.1-10.19,44.66-23.95C54.57,281.91,65.4,275.85,74.09,271c3.42-1.92,6.65-3.72,9.45-5.56,1.65-1.08,3.26-2,4.83-2.86,8.21-4.61,14.69-8.24,16-31.13.42-7.59-1.33-13.1-5.35-16.83-8.93-8.29-27.83-6.61-46.42-4.19-25.91,3.38-51,44.15-51.28,44.57l-2.56-1.56c1.05-1.73,26.13-42.42,53.45-46,19.3-2.52,39-4.21,48.85,5,4.65,4.32,6.77,10.78,6.31,19.19-1.36,24.54-9.2,28.93-17.49,33.58-1.52.86-3.1,1.74-4.65,2.76-2.9,1.89-6.17,3.72-9.63,5.66-9,5-19.15,10.73-29,20.68C33,308.07,25.5,315.67.2,319.1Z" transform="translate(2.45 1.5)" fill="#c0c0c0"/><path d="M2.07,311.55c-1.24,0-2-.05-2.16-.05l.18-3c.13,0,13,.69,21.42-4.1,3.24-1.84,4.67-3.5,7-6.24,3.79-4.37,9.52-11,27.48-23.72,28-19.91,35.11-29.37,37.46-38.19,1.48-5.6,2.42-11.38-.77-15.63-3-4-9.33-6.08-18.86-6.29-24.78-.55-35.23,7.55-44.06,20.79C21.22,248,1.82,265.5,1,266.24L-1,264c.2-.18,19.93-18,28.31-30.55,9.14-13.7,20.57-22.71,46.63-22.13,10.64.23,17.57,2.68,21.18,7.49,4.52,6,2.33,14.24,1.28,18.2-2.58,9.71-9.73,19.34-38.62,39.86-17.67,12.55-23.26,19-26.95,23.25-2.41,2.78-4.15,4.78-7.84,6.88C15.89,311.05,6.32,311.55,2.07,311.55Z" transform="translate(2.45 1.5)" fill="#c0c0c0"/><path d="M6,305.7a20.56,20.56,0,0,1-6.47-.93l1-2.81c.55.19,13.62,4.67,24.52-9.65,10.29-13.52,22.08-22.13,29.89-27.82,1.17-.86,2.24-1.64,3.18-2.35,7.41-5.59,28.16-23.75,26.29-33.55-.52-2.7-2.82-4.57-7-5.73-19.74-5.41-35.67,16.3-46.22,30.66-1.76,2.4-3.42,4.67-4.9,6.51C15.92,272.94,1.1,278,.48,278.25l-1-2.84c.15-.05,14.62-5.05,24.36-17.25,1.43-1.8,3.08-4,4.83-6.42,11-15,27.7-37.72,49.42-31.77,5.37,1.47,8.46,4.18,9.2,8.05C90,241.71,60.2,264.31,59.9,264.54c-.95.72-2,1.51-3.22,2.37C49,272.5,37.45,281,27.41,294.13,20.09,303.74,11.63,305.7,6,305.7Z" transform="translate(2.45 1.5)" fill="#c0c0c0"/><path d="M494.68,367.76c-8.2,0-16.46-2.69-25-5.47-4.12-1.34-8.37-2.73-12.64-3.8-5.18-1.3-10.34-2.38-15.33-3.43-15.49-3.25-30.12-6.33-43.29-15.15-9.3-6.22-15.16-12.18-21.37-18.49a202.47,202.47,0,0,0-20.57-18.83c-21.24-16.73-43.09-33-76.67-48.59-5.9-2.74-11.59-5.26-17.09-7.71-26.25-11.66-48.93-21.73-67.9-43-19.44-21.79-22.39-27.6-25.51-33.76-.52-1-1-2.07-1.67-3.2a28.35,28.35,0,0,0-2.26-3.24c-2.52-3.3-5.37-7-3.45-10.29,2.4-4.06,11.73-7.17,62.72.47a386.15,386.15,0,0,0,42.12,3.7c20.4.95,35.13,1.64,51.67,11.19,25.94,15,34.39,17,51.87,16.63,1.83,0,3.6-.06,5.32-.08,15.41-.21,26.54-.36,42.3-11,3.23-2.18,6.56-4.47,9.95-6.8,15.83-10.88,32.19-22.12,45.78-27.31,15.18-5.79,30.37-18.13,33.84-27.5a94.82,94.82,0,0,0,2.84-10.91c2.55-11.32,5.72-25.4,13.56-32.52a93.31,93.31,0,0,0,7.95-8.6c5.44-6.37,10.57-12.39,16.33-12.68a9.91,9.91,0,0,1,7.43,3.18c2.6,2.5,3.76,4.7,3.64,6.93-.2,3.56-3.65,6.23-8,9.6-3.85,3-8.65,6.67-12.62,12C537.31,81,536.1,82.56,535,84c-7.69,10.17-9.08,12-9.74,26.28-.55,11.7-5.22,28.48-9,42-1.71,6.13-3.18,11.43-4,15.28-2.54,11.89-4.13,23.79-6.55,49-.42,4.35-.87,8.46-1.31,12.44-1.94,17.54-3.46,31.39,1.15,40.6,2.51,5,7,9.89,11.4,14.61,5.78,6.23,11.24,12.13,12.18,18.23.15,1,.37,2.2.61,3.52,2.12,11.61,6.52,35.75-11.62,52.26C510.27,365.31,502.5,367.76,494.68,367.76ZM177.94,151.58c-9.08,0-12.51,1.26-13.38,2.75s1.39,4.52,3.24,6.94a30,30,0,0,1,2.52,3.62c.63,1.16,1.17,2.23,1.7,3.29,3,6,5.89,11.62,25.07,33.11C215.64,222.08,237,231.56,264,243.55c5.51,2.45,11.21,5,17.13,7.72C315,267,337,283.39,358.38,300.24a206.49,206.49,0,0,1,20.85,19.07c6.36,6.47,11.85,12.06,20.9,18.11,12.68,8.5,27,11.51,42.24,14.7,5,1.06,10.2,2.15,15.43,3.46,4.38,1.09,8.69,2.5,12.85,3.86,16.43,5.37,30.63,10,45.49-3.52,16.91-15.39,12.86-37.58,10.69-49.5-.25-1.35-.47-2.57-.63-3.61-.8-5.19-6-10.75-11.41-16.65-4.51-4.87-9.18-9.91-11.88-15.29-5-10-3.44-24.25-1.45-42.28.43-4,.88-8.07,1.3-12.39,2.43-25.32,4-37.3,6.61-49.32.84-3.94,2.33-9.28,4-15.46,3.71-13.33,8.33-29.93,8.86-41.29.71-15.2,2.56-17.65,10.35-27.95,1.08-1.43,2.27-3,3.6-4.81,4.23-5.7,9.21-9.54,13.21-12.63,3.76-2.9,6.73-5.19,6.85-7.38.07-1.27-.82-2.78-2.72-4.6-1.74-1.67-3.43-2.44-5.2-2.35-4.47.22-9.19,5.76-14.19,11.63A98.82,98.82,0,0,1,526,70.92c-7.14,6.48-10.2,20-12.65,31a97.37,97.37,0,0,1-2.95,11.29c-3.81,10.25-19.44,23.11-35.59,29.27-13.26,5-29.47,16.2-45.15,27-3.4,2.34-6.74,4.64-10,6.82-16.5,11.12-28.6,11.28-43.93,11.49-1.71,0-3.47,0-5.29.08-17.89.39-27.07-1.8-53.44-17-15.91-9.19-30.34-9.86-50.31-10.79a391.34,391.34,0,0,1-42.43-3.73C201.33,152.8,186.89,151.58,177.94,151.58Z" transform="translate(2.45 1.5)" fill="#c0c0c0"/><path d="M489.62,355.65c-6.24,0-14-1.21-25.2-2.95l-4.07-.63c-35.13-5.44-52.25-14.2-60.42-20.6-3.6-2.81-10.1-8.75-17.63-15.63-11.62-10.61-26.08-23.82-37.66-32.75a292.75,292.75,0,0,0-57.2-34.49c-5.59-2.59-11.6-4.94-18-7.43-15.44-6-32.94-12.86-48.66-25.21-21.72-17.06-29.46-29.07-36.29-39.67l-.32-.5c-3.51-5.45-6.71-11.09-3.94-15,2.44-3.42,9.41-6.33,41.83,1.66,34.85,8.59,50.33,9.21,60.56,9.62,5.11.2,8.79.35,12.83,1.43a86.14,86.14,0,0,1,12.45,4.94c10.64,4.82,25.22,11.41,47,13.32,29.33,2.56,52.27-.61,64.59-9,2.28-1.54,5.73-4,9.74-6.93,16.94-12.25,45.31-32.75,59.77-36,8.82-1.95,14.25-1.4,17.12,1.74,3.2,3.51,3.06,9.75-.48,20.86-4.83,15.17-5.56,31.7-6.15,45-.12,2.59-.23,5.05-.36,7.34-.34,5.75-2.23,13.27-4.24,21.22-2.91,11.57-5.93,23.53-4.12,30.19,2.34,8.57,10.79,15.78,18.24,22.15,2.31,2,4.48,3.83,6.4,5.65,4.91,4.68,9.84,15.26,9.76,26.42a30.74,30.74,0,0,1-9.78,23C505.67,352.54,499.63,355.65,489.62,355.65Zm-298.7-195.3c-5.09,0-7.35,1-8.22,2.22-1.82,2.54,2,8.43,4,11.59l.32.5c7,10.91,14.3,22.19,35.62,38.94,15.37,12.08,32.65,18.83,47.9,24.78,6.42,2.5,12.47,4.87,18.14,7.49a296,296,0,0,1,57.77,34.84c11.68,9,26.2,22.27,37.86,32.92,7.48,6.83,13.94,12.74,17.45,15.48,7.89,6.18,24.54,14.66,59,20l4.08.64c29.23,4.55,33.72,5.25,48.51-8.45a28,28,0,0,0,8.81-20.81c.07-10.31-4.39-20-8.83-24.22-1.86-1.77-4-3.61-6.28-5.55-7.78-6.65-16.6-14.18-19.18-23.64-2-7.42,1.09-19.77,4.1-31.71,2-7.82,3.83-15.19,4.15-20.67.13-2.27.24-4.72.36-7.29.6-13.46,1.35-30.21,6.29-45.76,3.09-9.69,3.45-15.39,1.13-17.93-2-2.23-6.7-2.5-14.26-.83C475.83,146,447.78,166.22,431,178.33c-4,2.91-7.49,5.42-9.81,7-12.89,8.73-36.51,12.09-66.54,9.45-22.29-2-37.14-8.66-48-13.56a85.3,85.3,0,0,0-12-4.79c-3.72-1-7.27-1.13-12.18-1.33-10.36-.41-26-1-61.16-9.7C206.16,161.64,196.71,160.35,190.92,160.35Z" transform="translate(2.45 1.5)" fill="#c0c0c0"/><path d="M478.75,343.34c-23.82,0-57.22-6.09-69.75-15.35-5.32-3.94-12.19-10-20.88-17.62C374.24,298.16,357,283,336.36,267.88c-32-23.41-42.21-26.82-56.35-31.54l-1.86-.63c-14.58-4.88-53.3-17.86-67-38-7.68-11.28-12.48-19-9.41-23.24,2.87-4,11.61-3.43,30.18,1.86,37.54,10.7,48.62,11.94,48.73,12l.14,0c3.7.74,7.4,1.5,11.09,2.25,53.79,11,104.6,21.29,136.16-3.64,25.72-20.31,40.09-27.33,49.62-24.25,5.27,1.7,9,6.52,11.29,14.71,7.05,24.85,1.63,50.9-5.05,77.62-4.57,18.26,6.73,29.28,16.7,39,5.71,5.56,10.64,10.37,11.73,15.81,1.87,9.37.46,17.73-4,23.52s-11.86,9.17-21.91,9.84C484,343.27,481.44,343.34,478.75,343.34ZM209,174.83c-2.92,0-4.27.6-4.82,1.36-2.06,2.86,4.6,12.65,9.46,19.8,13.15,19.34,51.17,32.08,65.49,36.88l1.85.62c14.41,4.81,24.82,8.28,57.18,32,20.72,15.17,38.05,30.41,52,42.66,8.64,7.59,15.46,13.59,20.69,17.45,13.45,9.95,52.26,16.09,75.43,14.54,9.16-.61,15.79-3.52,19.73-8.66s5.12-12.6,3.42-21.11c-.91-4.53-5.53-9-10.88-14.25-10-9.77-22.51-21.93-17.52-41.87,6.58-26.31,11.92-51.93,5.07-76.08-2-7.15-5.08-11.29-9.33-12.67-8.32-2.69-22.33,4.41-46.83,23.76-32.65,25.79-84.13,15.31-138.62,4.22q-5.5-1.12-11-2.23c-1.1-.13-12.47-1.58-49.17-12C219.64,175.92,212.89,174.83,209,174.83Z" transform="translate(2.45 1.5)" fill="#c0c0c0"/><path d="M283.15,227c-9.41,0-26.89-2.57-46-18.23-8.59-7-11.81-11.92-10.14-15.36,3.06-6.31,22.46-2.4,26.33-1.55,27.64,5.84,45.11,16.64,48.08,24.29a5.33,5.33,0,0,1-.44,5.29c-1.8,2.5-6.38,4.45-12.27,5.22A41.89,41.89,0,0,1,283.15,227Zm-46.1-34.12c-3.86,0-6.7.55-7.32,1.84-.33.68-.64,3.55,9.34,11.74,23.12,19,43.56,18,49.27,17.23s9.17-2.54,10.22-4c.17-.23.67-.93.08-2.45-2.08-5.37-16.39-16.21-45.9-22.44h0A78.25,78.25,0,0,0,237.05,192.83Z" transform="translate(2.45 1.5)" fill="#c0c0c0"/><path d="M478.23,331.13a121.19,121.19,0,0,1-16.31-1.27c-11.95-1.62-20.5-2.4-27.38-3-14.47-1.31-19.88-1.8-27.79-8-4.65-3.67-16.38-14.5-30-27-19.1-17.62-40.75-37.6-48.8-43.3-10.93-7.75-15.63-14.74-14-20.78,2.62-9.44,20.39-15.27,54.32-17.83h0c40.9-3.09,50.6-6.1,74.17-23,13.57-9.74,25.36-13,33.17-9.07,5.14,2.56,8.06,8,8.23,15.33l0,1.21c.38,15.72.58,24.38-5.95,47.43-6.28,22.16-6.15,38.15,12.49,59.08,8.71,9.79,11.66,17.52,8.75,23C496.64,328.67,489.59,331.13,478.23,331.13ZM368.58,212.84c-39.94,3-50.14,10.17-51.66,15.64-1.28,4.63,3.15,10.69,12.81,17.53,8.21,5.81,29.93,25.86,49.09,43.54,13.54,12.5,25.23,23.29,29.79,26.88,7.21,5.7,12,6.13,26.2,7.42,6.91.63,15.5,1.4,27.52,3,19.15,2.62,31.32,1,34.26-4.52,2.23-4.17-.66-10.94-8.34-19.57-19.46-21.85-19.55-39.24-13.13-61.89s6.2-31.11,5.83-46.54l0-1.21c-.14-6.16-2.48-10.68-6.56-12.71-6.68-3.33-17.65-.12-30.09,8.82-24.16,17.34-34.07,20.42-75.69,23.57Z" transform="translate(2.45 1.5)" fill="#c0c0c0"/><path d="M436.81,303.49c-1.52,0-3.14-.06-4.85-.19-16.11-1.18-28.95-8.16-47.36-25.78-8.13-7.77-26.45-27.23-21-40,3.25-7.68,14.36-11.24,33.06-10.55,22.81.84,33.13-6.62,38.09-10.21,3.65-2.63,11.74-4.45,17.44-1,3.42,2.07,7.17,6.81,5.6,17.6-1.68,11.58-.6,25.58.26,36.83.76,9.81,1.35,17.56,0,21.22C455,299.74,448.54,303.49,436.81,303.49Zm-44.56-73.63c-14.55,0-23.48,3-25.92,8.79-4.82,11.4,14.35,31,20.34,36.7,17.85,17.07,30.18,23.84,45.51,25,16.63,1.22,20.89-4.06,23-9.94,1.11-3.06.51-10.89-.19-20-.88-11.4-2-25.58-.24-37.49,1.06-7.26-.39-12.31-4.18-14.6-4.69-2.84-11.59-1-14.14.85-5.23,3.78-16.12,11.65-39.95,10.78h0C395,229.88,393.62,229.86,392.25,229.86Z" transform="translate(2.45 1.5)" fill="#c0c0c0"/><path d="M427.44,292c-14.79,0-15.74-1-31.74-17.35L393.15,272c-12.42-12.67-17.37-21.91-15.15-28.23,1.5-4.28,6.25-6.92,14.09-7.86,10-1.2,13.86-1.48,17.3-1.73,3.26-.24,6.08-.44,13.39-1.39h0a85.13,85.13,0,0,0,10.65-2.23c5.26-1.35,9.05-2.33,11.77-.13s3.7,7.48,3.2,19.13C447.2,277.71,443.62,292,427.44,292Zm-4.27-56.21c-7.39,1-10.25,1.17-13.56,1.41s-7.28.53-17.16,1.71c-6.62.8-10.53,2.78-11.62,5.89-1.23,3.48.29,10.66,14.46,25.14l2.56,2.61C413.62,288.68,413.92,289,427.44,289c12.32,0,16.68-9.61,18-39.54.43-10-.22-15.15-2.1-16.67-1.55-1.25-4.73-.43-9.13.71a88.72,88.72,0,0,1-11,2.29Z" transform="translate(2.45 1.5)" fill="#c0c0c0"/><path d="M425.35,276.41c-3.52,0-7.23-2.64-12.08-6.1l-3.42-2.4-.75-.52c-8.29-5.72-16.86-11.64-15.34-17.12,1.21-4.39,8.3-6.77,23-7.72h0c10.95-.71,19-.84,22.25,3.83,2.32,3.31,1.79,8.55-1.66,16.49-3.67,8.45-6.62,12.3-10.18,13.29A6.66,6.66,0,0,1,425.35,276.41ZM417,245.55c-16.63,1.07-19.86,3.92-20.3,5.52-.95,3.42,7.78,9.45,14.15,13.85l.75.52c1.23.85,2.38,1.66,3.46,2.43,5,3.57,8.64,6.16,11.36,5.4,2.51-.7,5.05-4.27,8.23-11.6,2.95-6.79,3.59-11.23,1.95-13.56-2.38-3.39-10.28-3.17-19.6-2.56Z" transform="translate(2.45 1.5)" fill="#c0c0c0"/><path d="M423.56,267.25c-1.56,0-3.42-1.19-7-3.49l-.35-.22c-5.35-3.43-8-7.39-7-10.6.61-2.07,2.91-4.54,10.42-4.54,5.44,0,8.59.11,10.07,2.24,1.31,1.89.66,4.67-.8,8.55-.35.93-.65,1.76-.91,2.49-1.12,3.12-1.74,4.84-3.4,5.41A3,3,0,0,1,423.56,267.25Zm-4-15.85c-4.28,0-7.1.89-7.54,2.39s1.21,4.3,5.78,7.22l.35.22c2.47,1.59,4.82,3.09,5.42,3a14.92,14.92,0,0,0,1.52-3.57c.27-.75.57-1.59.93-2.54,1.21-3.19,1.59-5.14,1.14-5.78C426.53,251.4,422.68,251.4,419.58,251.4Z" transform="translate(2.45 1.5)" fill="#c0c0c0"/><path d="M207.45,553.26c-5.1-10.59-7.77-15.53-5.93-18.16s6-2.22,12.23-1.58c1.77.18,3.78.39,5.93.54,14.18,1,19.81-2.56,27.61-7.54.81-.52,1.66-1.06,2.53-1.6,9.45-5.91,20.6-21.66,22.75-29.93,1.51-5.79,2.82-23.29-5.43-75.4-6.11-38.65-25.9-48.2-35.41-52.79-1.13-.55-2.11-1-2.92-1.48l-1.23-.68c-8.59-4.75-15.11-8.7-14.42-12.53.48-2.62,3.88-3.42,6.4-3.79A53.25,53.25,0,0,0,252,331.22c9.51-10.22,13.66-27.09,10.83-44l0-.31c-2.08-12.44-2.85-17.09-.4-19.42,1.89-1.79,5-1.26,8.9-.39,10.8,2.41,46.82,23.78,60.64,33.66,14.06,10.06,33.35,28.14,44.87,38.94l1.12,1.05c11.84,11.1,44.8,22.45,69.42,28.79a179.22,179.22,0,0,1,25.24,8.54c8.48,3.45,14.09,5.74,25.15,5.74,17.32,0,33.73-11.35,43.91-30.36,9.1-17,4.28-49.6-10.75-72.69-13.64-21-12.71-34.6-11.54-51.86.18-2.72.37-5.53.51-8.47,1-21.57,8.63-43.88,16-65.46l.24-.71c3.06-9,4.14-19,5.18-28.75,1.46-13.55,2.83-26.35,9.52-34.44,5.58-6.75,10.44-9.74,14.86-9.13,3.77.52,6.87,3.62,9.47,9.48,1.72,3.86.21,8.52-1.71,14.43-2.52,7.75-6,18.37-3.68,32.59,3.89,24.36,7.49,36.08,25.84,42.1l-.63,3c-20.6-6.75-24.43-21.17-28.18-44.6-2.39-14.93,1.19-25.95,3.8-34,1.71-5.29,3.07-9.47,1.82-12.28-2.15-4.84-4.49-7.36-7.14-7.73-3.24-.44-7.34,2.27-12.14,8.07-6.11,7.4-7.44,19.76-8.84,32.85-1.06,9.87-2.16,20.08-5.33,29.4l-.24.71c-7.28,21.38-14.81,43.49-15.82,64.63-.14,3-.33,5.8-.52,8.53-1.13,16.71-2,29.9,11.07,50,15.82,24.31,20.6,57.58,10.87,75.74-10.71,20-28.11,31.95-46.55,31.95-11.65,0-17.79-2.5-26.28-6a177.25,177.25,0,0,0-24.86-8.4c-26.16-6.75-58.48-18-70.72-29.51l-1.12-1.05c-11.47-10.75-30.66-28.75-44.56-38.69-14.85-10.61-49.87-31-59.55-33.17-2.63-.59-5.41-1.09-6.18-.36-1.3,1.23-.27,7.4,1.29,16.74l.05.31c3,17.82-1.47,35.65-11.6,46.55a56.14,56.14,0,0,1-34.14,18c-3.52.52-3.88,1.35-3.88,1.36-.25,1.34,4.1,4.49,12.91,9.37l1.24.68c.73.41,1.68.87,2.77,1.4,10,4.81,30.71,14.82,37.06,55,6.27,39.59,8.12,66.09,5.38,76.63-2.58,9.86-14.72,25.87-24.07,31.71-.87.54-1.7,1.07-2.51,1.59-8,5.09-14.27,9.1-29.44,8-2.19-.16-4.23-.37-6-.56-4.62-.47-8.61-.88-9.46.33-1.48,2.11,4.68,11.94,6.2,15.1Z" transform="translate(2.45 1.5)" fill="#c0c0c0"/><path d="M532.67,264a2.38,2.38,0,0,1-.45-.05c-2.25-.44-3.61-2.24-3.3-32.44.31-31.14,7.36-49.81,13-64.82,1.41-3.72,2.74-7.24,3.83-10.61,2.56-7.91,2.74-17,2.93-25.77.2-9.8.39-19.05,3.77-26.26,3.93-8.39,8-8.4,10.13-7.67C566,97.57,567.77,102,567,105a21,21,0,0,1-1.57,4c-1.64,3.48-3.89,8.26-3.89,19.9,0,17.63,1.16,36.86,9.73,45.79,9,9.34,24.13,13.83,24.28,13.87l-.77,2.91c-.66-.17-16.13-4.76-25.67-14.71-9.29-9.67-10.57-28.72-10.57-47.86,0-12.32,2.42-17.44,4.18-21.18a18.82,18.82,0,0,0,1.37-3.43c.42-1.7-.73-4.49-2.52-5.12s-4.31,1.61-6.41,6.11c-3.11,6.63-3.3,15.58-3.49,25.05-.19,9-.38,18.3-3.08,26.63-1.11,3.45-2.45,7-3.87,10.75-5.58,14.78-12.53,33.18-12.83,63.79-.17,15.86.15,25.49,1,28.7a69.38,69.38,0,0,0,3.18-7.15c5.12-12.83,35.07-54.88,59.05-57.74l.35,3c-21.88,2.6-51.32,42.61-56.62,55.87C536.12,261,534.71,264,532.67,264Z" transform="translate(2.45 1.5)" fill="#c0c0c0"/><path d="M593.17,340.2c-32.49,0-40.39-21.65-45.16-34.69l-.27-.76c-5.19-14.15-10.32-46.39,7.33-67.14s39.5-32.4,39.71-32.52l1.36,2.68a150.18,150.18,0,0,0-38.79,31.79c-16.75,19.69-11.77,50.58-6.8,64.16l.28.76c4.49,12.3,11.95,32.72,42.4,32.72.66,0,1.36-.32,2-.34l0,3C594.59,339.9,593.87,340.2,593.17,340.2Z" transform="translate(2.45 1.5)" fill="#c0c0c0"/><path d="M589.81,323.3c-2.08,0-4.75-.49-8.25-.88-10.4-1.18-19.4-10.83-22.94-24.58s6.47-27.11,16.75-38.28A141.71,141.71,0,0,0,593.9,234l2.42,1.78a142.38,142.38,0,0,1-18.74,25.85c-9.73,10.58-19.25,23.08-16.05,35.5s11.35,21.33,20.36,22.35c9.66,1.09,13.12,1.82,13.15,1.81l.46,3A14.88,14.88,0,0,0,589.81,323.3Z" transform="translate(2.45 1.5)" fill="#c0c0c0"/><path d="M595.2,319.3c-25.23-1.84-28.06-13.45-30.31-21.22-.24-.83-.48-1.65-.74-2.44-3.07-9.35,5.26-16.58,11.34-21.87s18.7-20.92,18.83-21.07l2.17,1.75c-.53.65-12.75,16.13-19,21.59-7.06,6.13-12.72,11.77-10.46,18.66.27.83.52,1.68.77,2.55,2.2,7.58,4.4,17.32,27.54,19Z" transform="translate(2.45 1.5)" fill="#c0c0c0"/><path d="M595.2,311.76c-14.45-1.49-23.41-4.11-23-19,.36-13.53,20.74-28.07,21.64-28.63l2.21,2c-.21.13-20.53,14.75-20.85,26.67-.3,11.27,4.76,14.3,20.2,15.89Z" transform="translate(2.45 1.5)" fill="#c0c0c0"/><path d="M595.11,305.27c-11-3.7-16.25-6.83-16.89-11-.73-4.79,4.62-8.68,10.81-13.19,1.77-1.29,3.51-4.07,5.22-5.44l1.4,2.68c-1.77,1.42-3.06,3.87-4.85,5.18-4.95,3.61-10.07,7.33-9.61,10.32.29,1.92,3.06,4.63,14.74,8.58Z" transform="translate(2.45 1.5)" fill="#c0c0c0"/><path d="M553,466.37a20.4,20.4,0,0,1-4.8-.76,44,44,0,0,1-5.28-1.68c-3.16-1.19-4.22-1.59-16.8-.05-1.61.19-6.48.79-8-2.38-1.81-3.66,2.14-10.25,12.43-20.72l.51-.51c1.49-1.56,17.68-24.07,15.63-38.06a10.57,10.57,0,0,0-5.46-8.17c-8-4.56-11.77-8.21-12.29-11.87-.48-3.4,1.93-5.87,4.26-8.25.54-.56,1.09-1.12,1.61-1.7.74-.84,1.6-1.7,2.51-2.62,5-5,11.73-11.83,14.3-28,1.06-6.72,2.61-10,5.17-11.05,3-1.19,6,1.16,9.6,3.88a37.22,37.22,0,0,0,7.9,5c9.94,4.08,20.71,2.5,20.81,2.49l.45,3a46.79,46.79,0,0,1-22.4-2.74,39.12,39.12,0,0,1-8.57-5.4c-2.73-2.07-5.3-4-6.67-3.48-.78.31-2.24,1.86-3.33,8.74-2.72,17.12-10.19,24.65-15.13,29.64-.88.88-1.71,1.72-2.4,2.5-.55.61-1.13,1.21-1.7,1.8-2,2-3.71,3.79-3.44,5.74.36,2.53,4,5.79,10.81,9.67a13.58,13.58,0,0,1,6.93,10.34c2.26,15.36-14.78,38.84-16.42,40.57-.11.12-.3.3-.54.54-12.93,13.17-12.16,16.72-11.88,17.29.15.3.94,1.23,5,.73,12.73-1.55,14.4-1.21,18.22.22a42,42,0,0,0,5,1.58c3.91,1,5.2.71,5.59.29,1.36-1.45-1.25-9.39-2.51-13.2-3-9.16-9-42,42.29-78l1.84,2.47c-49.56,34.79-44.12,65.91-41.28,74.57,3,9.1,4,13.85,1.85,16.19A4.86,4.86,0,0,1,553,466.37Z" transform="translate(2.45 1.5)" fill="#c0c0c0"/><path d="M555.75,399.82c-3,0-4.67-3.06-6.41-6.29-1.5-2.78-3.19-5.93-6-8.23s-4.42-4-4.57-6.25c-.21-3.09,2.51-6,8.47-12.51,6.38-6.91,6.85-11.07,7.38-15.89a42.29,42.29,0,0,1,1.12-6.61,5.69,5.69,0,0,1,3-4.06c3-1.34,6.85.61,11,2.69a32.71,32.71,0,0,0,7,2.94c7,1.5,18.35,1.58,18.46,1.58l0,3c-.48,0-11.8-.07-19.11-1.65a34.82,34.82,0,0,1-7.77-3.2c-3.14-1.58-6.7-3.38-8.37-2.63-.23.1-.91.41-1.36,2.1a39.08,39.08,0,0,0-1,6.17c-.58,5.12-1.11,10-8.16,17.6-5,5.46-7.81,8.46-7.69,10.27.08,1.11,1.39,2.41,3.49,4.14,3.24,2.67,5.17,6.25,6.71,9.12,1.39,2.57,2.56,4.82,3.89,4.71s5.74-4.68,9.72-8.6c8.3-8.19,19.68-19.63,29.27-22.51l.92,2.87c-8.88,2.67-20,13.8-28.09,21.77-6.53,6.45-9.5,9.3-11.61,9.46Z" transform="translate(2.45 1.5)" fill="#c0c0c0"/><path d="M559.79,382.93a9.88,9.88,0,0,1-7.1-2.62c-1.28-1.29-3.86-5-.16-11.38,1.48-2.55,2.71-5.14,3.91-7.64,3.57-7.48,6.66-13.93,13.5-12.36,7.76,1.78,17.38,4,25.29,3.74l.09,3c-8.29.26-18.12-2-26-3.81-4.33-1-6.57,3.21-10.17,10.73-1.22,2.55-2.48,5.19-4,7.84-1.91,3.29-2,6.05-.31,7.77,2.32,2.33,7.19,2.32,11.34,0a66.36,66.36,0,0,0,9.05-6.67c5.2-4.29,11.09-9.34,19.57-12.36l1,2.83c-8,2.85-13.41,7.51-18.66,11.84a67.89,67.89,0,0,1-9.48,7A16,16,0,0,1,559.79,382.93Z" transform="translate(2.45 1.5)" fill="#c0c0c0"/><path d="M594.53,472.12c-.21-.06-20.14-7.33-20.54-34.49a49.75,49.75,0,0,1,20.2-40.95l1.8,2.4c-.2.12-19.37,13.34-19,38.51.37,25,18.82,31.8,19,31.85Z" transform="translate(2.45 1.5)" fill="#c0c0c0"/><path d="M594.63,460.75c-.37-.22-9-6.42-11.54-24.69-2.51-18.43,10.7-30.34,11.27-30.76l1.78,2.21.2-.36-.13.51c-.5.38-12.42,11.37-10.15,28s10.09,21.86,10.17,21.91Z" transform="translate(2.45 1.5)" fill="#c0c0c0"/><path d="M594.74,486.62c-10.16-1.81-33.66-12.84-36.85-46.13-3.47-36.21,35-61.29,36.62-62.34l1.78,2.58c-.39.24-38.71,25.11-35.41,59.47,3,31.25,24.86,41.73,34.35,43.42Z" transform="translate(2.45 1.5)" fill="#c0c0c0"/><path d="M540,455.33h-.63l-1.13,0c-3.56,0-4.92-1.39-5.44-2.57-.93-2.12.23-4.91,3.55-8.54,3.77-4.12,6.4-4,7.94-3.18,2.39,1.28,2.93,4.81,2.23,7.63h0C545.06,454.49,543.43,455.33,540,455.33Zm2.45-11.77c-.75,0-2.08.68-3.88,2.65-3.52,3.84-3.08,5.17-3,5.31.17.39,1.07.78,2.69.78l1.2,0c2.66.07,3.06.07,4.17-4.4h0c.5-2,0-3.86-.74-4.26A.87.87,0,0,0,542.43,443.56Z" transform="translate(2.45 1.5)" fill="#c0c0c0"/><path d="M273.35,552.91l-2.53-1.6c1.2-1.4,30.48-34.06,50.38-40.09,9.5-2.87,9.76-4.72,9.76-4.74-.08-.65-3.08-2.22-7.77-2.84-.91-.12-22.47-3.2-37.15-25.66-13.23-20.23-10.93-53.72-8-77.15,3.83-31.1,16.9-65.29,42.11-68,24.58-2.61,42.59,4.31,51.25,11.65,6.51,5.53,12.94,13.38,15.76,33.23,2.33,16.38,10.76,19.06,28.74,18.86,15.4-.17,37.63-5.45,44.94-7.19l2.37-.55c3.83-.83,58.81-.18,66,2.61,7.57,2.92,10.92,6.68,10.72,21.18-.2,13.67-12.12,27.68-21.69,38.94l-1.31,1.54c-2.55,3-9.34,11-8.4,12.78,0,.05.61,1,5.53.45,11.29-1.3,29.88,1.8,43.52,5.15,12.2,3,37.35,18.67,38.42,19.24l-2,2.37c-.26-.14-25.34-15.79-37.17-18.69-13.38-3.29-31.56-6.35-42.46-5.09-3.26.38-7.17.49-8.51-2-1.62-3,1.53-7.62,8.76-16.14l1.3-1.54c9.27-10.89,20.8-24.45,21-37,.19-13.46-2.54-15.93-8.8-18.34S468,390.9,463.81,391.8c-.46.1-1.25.28-2.32.54-7.39,1.75-29.87,7.1-45.6,7.27-19,.19-29.12-3.05-31.74-21.44-2.68-18.85-8.67-26.22-14.73-31.36-8.19-6.94-25.35-13.47-49-11S284.5,372.61,281,401.2c-2.83,23-5.12,55.74,7.57,75.14,11.15,17.05,27.79,23.37,35,24.33,2.35.31,10,1.63,10.36,5.57.23,2.87-3.43,5.3-11.88,7.86C303,519.87,273.64,552.57,273.35,552.91Z" transform="translate(2.45 1.5)" fill="#c0c0c0"/><path d="M540.05,232.42a3.58,3.58,0,0,1-1.52-.33c-2.69-1.25-3.35-5.44-2.19-14,1.58-11.62,7.36-49.7,15.81-51.67,1.2-.28,3-.08,4.68,2.45,6.13,9.1,9.06,11.43,9.09,11.45l.15.14c1.44,1.45,2.74,2.73,3.9,3.88,5.48,5.43,8,7.9,7.9,10.92s-2.77,5.34-8.11,10.06l-2,1.73c-3.3,2.93-7,7.06-10.68,11.06C549.25,226.77,543.9,232.42,540.05,232.42Zm12.89-63.09h-.11c-3.43.81-9.34,18.3-13.51,49.15-1.32,9.74.29,10.79.47,10.88,2.15,1,10-7.59,15.11-13.28,3.68-4.05,7.49-8.24,10.91-11.28l2-1.74c4.4-3.88,7.05-6.22,7.1-7.89s-2.61-4.35-7-8.7q-1.73-1.71-3.86-3.85c-.6-.5-3.73-3.28-9.66-12.08C554,170.08,553.45,169.33,552.94,169.33Z" transform="translate(2.45 1.5)" fill="#c0c0c0"/><path d="M547.54,213.49A2.85,2.85,0,0,1,546,213c-2.25-1.46-2.05-5.33.93-18,1.9-8.12,4.32-12.21,7.61-12.87,3.57-.71,6.28,3.07,7.44,4.68.12.17.21.3.28.38l.58.59c3.53,3.56,5.66,5.71,5.47,8.47-.21,2.93-3.13,5.62-9.59,10.53C553,211.13,549.8,213.49,547.54,213.49Zm7.84-28.42a1.33,1.33,0,0,0-.28,0c-.88.17-3.15,1.55-5.27,10.61-.77,3.27-3.08,13.1-2.21,14.77,1.32,0,5.9-3.5,9.27-6.06,5.23-4,8.28-6.63,8.4-8.36.1-1.4-1.77-3.29-4.6-6.15l-.61-.61a6.85,6.85,0,0,1-.56-.72C558.88,187.69,557,185.07,555.38,185.07Z" transform="translate(2.45 1.5)" fill="#c0c0c0"/><path d="M188,331c-1.55,0-3.16-.05-4.82-.14-37.75-2.05-51.69-28-52.15-49.66-.39-18.36,11.11-26.23,12.34-27,15.14-12.12,39-16.44,59.28-10.76,22.18,6.2,35.57,36.63,35.19,50.47-.24,8.49-4.74,17.57-12,24.28C219.33,324.12,207.61,331,188,331Zm-43-74.31c-.48.31-11.35,7.27-11,24.45.43,20.34,13.61,44.79,49.31,46.73C204.84,329,217.2,322,223.8,315.93c7.9-7.28,10.9-16.23,11.07-22.17.37-13.33-13-41.89-33-47.49-19.47-5.44-42.25-1.32-56.67,10.27Z" transform="translate(2.45 1.5)" fill="#c0c0c0"/><path d="M188.2,325.56c-7.92,0-27.19-4.75-39.1-16.43-6.79-6.67-10.17-14.48-10-23.22a34.21,34.21,0,0,1,11.25-25.58c10-9.22,24.75-12.74,34.25-12.12,18.18,1.2,45.18,13.76,45.05,43.46-.14,29.31-28.58,33.46-40.8,33.88Zm-5.89-74.42c-8.84,0-21.32,3.42-30,11.39A31.31,31.31,0,0,0,142.06,286c-.12,7.89,3,15,9.14,21,11.59,11.36,30.45,15.81,37.5,15.56,11.36-.39,37.78-4.19,37.91-30.9.12-27.63-25.2-39.32-42.25-40.45h0C183.71,251.16,183,251.14,182.31,251.14Z" transform="translate(2.45 1.5)" fill="#c0c0c0"/><path d="M191.07,317.83c-.91,0-1.84,0-2.8-.09-23.8-1.49-38.56-13.68-38.52-31.81,0-18.45,18-30.1,34.56-30.31h0c9.28-.08,22,6.07,29.72,14.38,5.12,5.52,7.55,11.4,7.05,17C220.23,296.44,215.57,317.83,191.07,317.83Zm-6.72-59.21c-15.17.19-31.56,10.69-31.6,27.31,0,16.4,13.65,27.44,35.71,28.82,24.32,1.52,28.83-19.1,29.63-28,.54-5.95-3.11-11.27-6.26-14.67-7.18-7.76-19-13.51-27.48-13.42Z" transform="translate(2.45 1.5)" fill="#c0c0c0"/><path d="M188.23,300.62c-.5,0-1,0-1.52-.05-10.15-.66-16.83-6.21-16.62-13.81.24-8.94,5.84-14,15.4-13.77,5.31.1,10.27,2.09,13.28,5.32a11.69,11.69,0,0,1,3.19,8.74c-.23,4.57-1.68,8.08-4.32,10.43C195.3,299.57,192.14,300.62,188.23,300.62ZM185,276c-9.54,0-11.73,5.88-11.87,10.87-.16,6,5.26,10.17,13.82,10.73,3.79.24,6.73-.54,8.75-2.34s3.13-4.6,3.32-8.34a8.65,8.65,0,0,0-2.4-6.55c-2.46-2.64-6.63-4.27-11.14-4.36H185Z" transform="translate(2.45 1.5)" fill="#c0c0c0"/><path d="M270.88,390c-2.71,0-5.17-3.37-8.89-9.79-3-5.14-7.92-8.79-12.28-12-4.94-3.65-9.2-6.8-9.37-11.23-.12-3.09,1.78-6.23,6-9.86,14.75-12.77,23.67-30.71,23.87-48,0-.76,0-1.51,0-2.25.05-7.52.09-13.47,4.27-15.64,5-2.62,14.92,1.73,34.16,15,26,17.94,32.72,24.06,31.3,28.46-.86,2.66-4.52,3.75-12.28,3.59-19.19-.35-41.1,11-46.89,37.26C276.69,384,275,389.41,271.39,390A2.92,2.92,0,0,1,270.88,390Zm6.92-106.54a4.2,4.2,0,0,0-1.95.41c-2.57,1.34-2.61,6.74-2.65,13,0,.74,0,1.5,0,2.27-.21,18.14-9.52,36.92-24.91,50.24-3.4,2.95-5,5.39-4.93,7.47.11,3,3.84,5.74,8.15,8.93,4.6,3.4,9.81,7.25,13.1,12.93,4.07,7,5.69,8.39,6.34,8.29,2.09-.33,5.1-14,6.9-22.1,6.15-27.91,29.46-40,49.88-39.62,8.57.16,9.31-1.34,9.36-1.51,1.13-3.48-20-18.06-30.14-25.07h0C292.13,288.48,282.54,283.46,277.8,283.46Z" transform="translate(2.45 1.5)" fill="#c0c0c0"/><path d="M265.27,368.35a5.67,5.67,0,0,1-2.95-.84c-5.73-3.46-9.24-5.81-9.74-9.23-.33-2.29.77-4.68,3.56-7.73,5.65-6.18,21.85-27.4,22.24-43.32,0-1.24,0-2.4.06-3.48.08-6.2.14-9.94,2.71-11.41,3-1.7,7.74.47,21.52,8.34h0c16.68,9.52,21.77,13.07,21.12,16.69-.52,2.88-4.6,4.1-11.47,5.23-16.58,2.73-23.46,10.44-26.08,14.8-.63,1-1.65,3.36-2.83,6.05-3.94,9-9.89,22.56-16.37,24.62A5.79,5.79,0,0,1,265.27,368.35Zm18.1-73.56a1.45,1.45,0,0,0-.74.16c-1.08.61-1.13,4.43-1.19,8.84,0,1.09,0,2.26-.06,3.51-.41,16.93-16.76,38.42-23,45.27-2.07,2.27-3,4-2.8,5.28.3,2.1,3.64,4.27,8.32,7.09a2.58,2.58,0,0,0,2.26.27c5.19-1.64,11.27-15.51,14.53-23,1.28-2.9,2.28-5.19,3-6.4,2.89-4.8,10.39-13.28,28.16-16.21,8.34-1.37,9-2.57,9-2.8.38-2.12-12.65-9.56-19.65-13.55h0C294.49,299.46,286.3,294.79,283.37,294.79Z" transform="translate(2.45 1.5)" fill="#c0c0c0"/><path d="M287.49,324.15a3.66,3.66,0,0,1-2.08-.57c-2.05-1.34-1.89-4.2-1.66-8.51,0-.55.06-1.13.09-1.73.24-5,.43-9,3-10.35,1.84-.94,4.26-.27,8.08,2.24h0c3.58,2.37,7.22,5.27,7,8.92-.16,2.74-2.5,5.21-7.16,7.53C291.44,323.36,289.15,324.15,287.49,324.15Zm1.13-18.56a.88.88,0,0,0-.39.07c-1.05.54-1.25,4.75-1.39,7.83q0,.9-.09,1.74c-.13,2.43-.3,5.44.31,5.84.22.15,1.36.44,6.39-2.07,3.51-1.76,5.42-3.49,5.51-5s-1.76-3.66-5.66-6.23h0C290.54,305.93,289.22,305.59,288.62,305.59Z" transform="translate(2.45 1.5)" fill="#c0c0c0"/><path d="M408.48,390.83c-11.62,0-15.17-3-18.06-15.52-2.15-9.29-2-13.87.58-15.81,3.07-2.33,8.49.31,15.26,4,10.63,5.82,15.3,6.57,24.6,8.07,1.42.22,2.93.47,4.59.75h0c8.25,1.39,27.43,5.23,27.12,10.63-.14,2.48-3,4.93-22.61,6-6.25.34-11.55.73-16.24,1.06C417.47,390.47,412.5,390.83,408.48,390.83ZM393.91,361.6a1.8,1.8,0,0,0-1.1.29c-.77.58-1.73,3,.53,12.75,3.32,14.33,5.86,14.14,30.17,12.39,4.69-.34,10-.72,16.29-1.06,16.14-.89,19.17-2.69,19.71-3.21-1.07-1.61-9.89-5-24.56-7.48l-4.56-.74c-9.34-1.5-14.48-2.33-25.57-8.39C401.77,364.48,396.5,361.6,393.91,361.6Z" transform="translate(2.45 1.5)" fill="#c0c0c0"/><path d="M414.77,385.47c-9.09,0-14.75-3.53-16.37-7.16a4.54,4.54,0,0,1,.71-5.16c2.43-2.55,7.7-2.48,14.45.18l1.61.63c8.83,3.44,12.94,5.36,12.47,8.08-.32,1.88-2.39,3.11-11.71,3.41ZM404.6,374.29a4.69,4.69,0,0,0-3.32.93,1.58,1.58,0,0,0-.14,1.87c1,2.31,5.78,5.65,14.69,5.36,5.43-.17,7.63-.67,8.49-1-1.65-1.36-7.34-3.58-10.23-4.7l-1.63-.64A22.08,22.08,0,0,0,404.6,374.29Z" transform="translate(2.45 1.5)" fill="#c0c0c0"/><path d="M516.22,553.27c-23.24-13.61-28.63-36.1-29.06-42.78a26.92,26.92,0,0,1,6.95-19.42c4.57-5.12,13.51-11.4,30.18-12.23,27.68-1.37,70.05,29.28,71.84,30.53l-1.65,2.5c-.43-.3-43.35-31.35-70-30-12.37.61-22.09,4.5-28.09,11.23a23.82,23.82,0,0,0-6.19,17.22c.4,6.31,6,27.78,27.94,40.65Z" transform="translate(2.45 1.5)" fill="#c0c0c0"/><path d="M534.94,553.53c-30.08-22.73-35.52-38.16-32.52-47.1,3.24-9.65,14.88-15.88,29.67-15.88,26.53,0,62.91,34,64.43,35.32l-2.18,2.18c-.37-.32-36.86-34.5-62.25-34.5-11,0-23.62,4.28-26.82,13.83-3.8,11.33,9.22,26.67,31.58,43.57Z" transform="translate(2.45 1.5)" fill="#c0c0c0"/><path d="M550.75,553.07c-24.84-19.09-37.09-31.37-34.44-39.61,2.42-7.54,15-8.9,25.59-9.25l.8,0c24.12,0,52.73,35.92,53.95,37.43l-2.31,2.25c-.29-.36-29-36.68-51.64-36.68l-.71,0c-14,.45-21.42,2.8-22.82,7.16-1.48,4.6,5.17,14.7,33.87,36.77Z" transform="translate(2.45 1.5)" fill="#c0c0c0"/><path d="M569.42,553.37c-6.35-3.9-40.37-23.6-38.81-33.46a8.06,8.06,0,0,1,5.38-6.56c7.68-2.82,20.94,2.75,34.6,14.53,10.13,8.75,15.23,15.93,15.15,21.37a4.5,4.5,0,0,1-2.76,3.93l-1-.27-.55-.82L580.9,551s1.88-.47,1.84-2c-.06-2.54-2-8.37-14.11-18.84-15.36-13.24-26.63-15.81-31.61-14a5.06,5.06,0,0,0-3.45,4.22c-1,6.1,23.43,21.84,37.47,30.46Z" transform="translate(2.45 1.5)" fill="#c0c0c0"/><path d="M490.47,552.8c-.91-.91-25.17-21.9-25.17-36.48,0-4.52,1.19-9.1,2.23-13.13,1.15-4.45,2.24-8.66.85-10-.76-.75-2.94-1.31-9,.34-6.92,1.88-11.15,3.34-14.54,4.51-6.46,2.24-9.41,3.26-20.35,3.53-4.06.1-5.11.94-5.15,1.23-.33,2.16,9.08,9.14,20.43,13,13.86,4.75,42.88,34.44,44,35.7l-2.66,1.41c-.28-.3-29.2-29.77-42.34-34.27-8-2.74-23.31-10.6-22.43-16.33.56-3.59,6.2-3.73,8.05-3.77,10.47-.26,13.28-1.23,19.44-3.36,3.44-1.19,7.71-2.67,14.74-4.58,6.21-1.69,9.87-1.56,11.88.43,2.61,2.58,1.44,7.14-.06,12.91-1,3.86-2.13,8.24-2.13,12.38,0,13.34,24.61,34.87,24.82,35.09Z" transform="translate(2.45 1.5)" fill="#c0c0c0"/><path d="M457.89,517.62c-2.25,0-5.57-1.37-11.39-3.78l-.17-.07c-9.6-4-12.94-5.83-12.59-8.33.31-2.2,3-3.17,11.63-4.15h0a22.39,22.39,0,0,0,5-1.63c3.64-1.48,7.4-3,10-1.14,1.7,1.22,2.42,3.6,2.21,7.26l-.1,1.82c-.29,5.44-.44,8.18-2.47,9.45A3.77,3.77,0,0,1,457.89,517.62ZM437,505.91c1.66,1.44,8.2,4.14,10.48,5.09l.16.06c5.48,2.27,9.81,4.06,10.76,3.46.72-.46.88-3.53,1.08-7.08l.1-1.83c.14-2.45-.2-4.1-1-4.65-1.25-.9-4.51.42-7.13,1.48a23.8,23.8,0,0,1-5.77,1.83h0C440,504.92,437.82,505.53,437,505.91Z" transform="translate(2.45 1.5)" fill="#c0c0c0"/><path d="M298.57,553.52l-1.86-2.36L302,547c31.13-24.64,32.34-25.6,72.23-29.34,41.77-3.94,80.41,33.21,80.79,33.59l-2.09,2.15c-.38-.37-38-36.54-78.42-32.76-39,3.67-39.59,4.14-70.65,28.71Z" transform="translate(2.45 1.5)" fill="#c0c0c0"/><path d="M433.23,553.37c-.4-.28-2.43-1-3.06-1.52-6.59-5-27.37-19.56-59.82-20.38l-2,0c-33.75,0-55.57,21.73-55.79,22l-2.14-2.11c.24-.24,23.83-23.73,60-22.82,33.42.84,54.77,15.82,61.56,20.94.6.46,2.48,1.16,2.86,1.43Z" transform="translate(2.45 1.5)" fill="#c0c0c0"/><path d="M415.64,553.54c-.2-.13-20.86-12.6-46.65-13.55-25.61-1-41.35,13.26-41.49,13.4l-1.56-2.57c.63-.62,16.28-14.82,43.16-13.83a106.23,106.23,0,0,1,47.65,13.75Z" transform="translate(2.45 1.5)" fill="#c0c0c0"/><path d="M393.45,553.61a90,90,0,0,0-26-4.65A65.11,65.11,0,0,0,343,553.58l-.58-3A61.82,61.82,0,0,1,367.51,546a81.64,81.64,0,0,1,25.94,4.65Z" transform="translate(2.45 1.5)" fill="#c0c0c0"/><path d="M361.86,494.86a106,106,0,0,1-16.54-1.33c-26.9-4.23-54.92-23.45-55.23-48.31,0-2.68-.54-66,24.66-90.27a31.14,31.14,0,0,1,23.92-9.18h0c21,1,30.37,11.79,31.29,36,.9,23.48,16.51,28.41,29.45,28.41,4.79,0,17.23-1.8,31.63-3.88,21.23-3.07,47.66-6.89,60.22-6.36,12.06.51,24.16,1.67,28,9.66,3.26,6.69-.18,16.94-10.51,31.34-11.61,16.2-32.05,37.21-63.47,45.36-4.77,1.24-11.4,1.44-19.78,1.69-5.9.18-12.59.38-20,1a143.57,143.57,0,0,0-16.33,2.59C381.27,493.13,372.58,494.86,361.86,494.86ZM337,348.73a28.27,28.27,0,0,0-20.16,8.38c-24.28,23.42-23.78,85.44-23.74,88.07.29,23.28,27,41.35,52.7,45.39,18.42,2.89,30.85.43,42.86-2A143.82,143.82,0,0,1,405.32,486c7.48-.61,14.2-.82,20.14-1,8.19-.24,14.67-.44,19.12-1.59,30.55-7.92,50.46-28.41,61.79-44.21,9.49-13.23,12.94-22.75,10.24-28.28-3.16-6.5-14.81-7.53-25.48-8-12.27-.52-38.55,3.28-59.66,6.34-14.52,2.1-27.05,3.91-32.06,3.91-11.67,0-31.4-4.07-32.45-31.3-1-26.36-12.1-32.3-28.44-33.09C338,348.74,337.49,348.73,337,348.73Z" transform="translate(2.45 1.5)" fill="#c0c0c0"/><path d="M363.71,488.43c-27.5,0-56-11-61.86-31-4.94-16.86-2.14-64.27,14.87-87.45,6.13-8.34,13.48-12.66,21.85-12.82h0c19.1-.36,22.49,17.24,23.25,34.51.27,6.15,3.12,11.63,8.47,16.28,9.09,7.89,23.89,11.71,33,10.84,6.08-.59,19.74-3.43,34.2-6.43,18-3.74,36.68-7.62,43.76-7.78,7.55-.18,21.35,2.85,26.16,11.73,3,5.56,2,12.16-3.13,19.59-13.64,19.91-39.87,43.86-68.92,45.87-5.2.36-9.4.63-13,.87-15.24,1-19.85,1.27-44.85,4.83A99.13,99.13,0,0,1,363.71,488.43ZM338.62,360.18c-7.38.14-13.93,4.05-19.48,11.6-16.22,22.1-19.08,68.88-14.41,84.82,6.34,21.6,43.19,32,72.3,27.91,25.13-3.56,29.75-3.86,45.09-4.85,3.6-.23,7.8-.5,13-.86,28-1.94,53.39-25.22,66.65-44.57,4.41-6.44,5.41-12,3-16.48-4-7.29-16.11-10.32-23.45-10.15-6.81.16-25.32,4-43.22,7.72-14.54,3-28.28,5.87-34.53,6.47-9.55.92-25.14-2.82-35.21-11.56-6-5.2-9.18-11.4-9.49-18.41-1-22.42-6.71-31.64-19.67-31.64Z" transform="translate(2.45 1.5)" fill="#c0c0c0"/><path d="M360.06,483.22c-1.06,0-2.13,0-3.21-.11-23.58-1.65-49-13.82-49.5-43-.38-21.37,11.56-56.6,27-59.66,8.34-1.66,15.79,5.72,22.12,21.91h0c3.09,7.92,7.48,16.69,16.58,21.73,10.21,5.65,24.73,5.89,44.38.73,48.49-12.74,72.14-14.74,79.06-6.71,2.51,2.92,2.66,7,.44,12.21-10.25,23.94-38.76,40.78-46.76,42.26-4,.73-9.63.7-16.79.66s-16.35-.1-26.28.71c-8.57.69-16.05,2.82-23.27,4.87C375.88,481.06,368.3,483.22,360.06,483.22Zm-23.53-100a7.77,7.77,0,0,0-1.58.16C322,385.92,310,418,310.35,440c.63,34.22,35.91,39.34,46.7,40.09,9,.62,17.24-1.72,26-4.2,7.36-2.1,15-4.26,23.85-5,10.05-.82,19.19-.76,26.53-.72,7,0,12.54.07,16.23-.61,7.36-1.36,34.88-17.89,44.56-40.49,1.75-4.1,1.76-7.07,0-9.08-7.75-9-47.09.06-76,7.66-43.87,11.52-56.94-4.86-64.53-24.27C348.5,390.14,342.6,383.2,336.53,383.2Z" transform="translate(2.45 1.5)" fill="#c0c0c0"/><path d="M355.84,474.07c-1.27,0-2.53-.05-3.76-.15a42.43,42.43,0,0,1-28.36-14.63c-4.44-5.33-6.61-11.14-6.12-16.36,1.56-16.43,6.39-26.38,14.36-29.58,8.25-3.3,19.38,1.07,33.1,13h0c22.16,19.23,43.54,20.5,69.35,4.11,19.54-12.41,39.09-11.93,46-4.37,3.94,4.31,3.39,10.42-1.49,16.76-14.44,18.75-18.7,23.19-41,23.55-14.33.23-20.5-1-25.46-1.9a44.3,44.3,0,0,0-7.25-1c-2.8-.11-8.51,1.61-15.11,3.6C379.7,470.24,367,474.07,355.84,474.07Zm-18.07-58.8a12.42,12.42,0,0,0-4.69.87c-4.71,1.88-10.7,8.11-12.49,27.07-.42,4.42,1.51,9.45,5.44,14.16a39.88,39.88,0,0,0,26.31,13.56c11.38,1,25.54-3.27,36.92-6.7,7.15-2.15,12.77-3.85,16.08-3.73a47.34,47.34,0,0,1,7.72,1c4.82.92,10.81,2.07,24.84,1.85,21-.34,24.36-3.84,38.64-22.38,4-5.15,4.55-9.73,1.65-12.91-6-6.55-24.78-6.16-42.17,4.88-26.74,17-49.92,15.6-72.92-4.37C352.89,419.73,344.4,415.27,337.77,415.27Z" transform="translate(2.45 1.5)" fill="#c0c0c0"/><path d="M356.26,459.5c-2.84,0-6.57-.84-11.22-2.53-7.32-2.66-11.71-7.77-11.72-13.67a10.84,10.84,0,0,1,6.89-10.3c2.35-.87,8.57-2,15.45,6.08h0c5,5.94,9.4,13.78,6.48,18C361,458.69,359.06,459.5,356.26,459.5Zm-12.55-24.13a7.23,7.23,0,0,0-2.47.44,7.86,7.86,0,0,0-4.92,7.48c0,4.66,3.56,8.62,9.75,10.86,10.7,3.89,13.12,1.89,13.61,1.19,1.53-2.19-1.13-8.22-6.31-14.32h0C350.24,437.33,346.84,435.37,343.71,435.37Z" transform="translate(2.45 1.5)" fill="#c0c0c0"/><path d="M448.5,453.32c-.64,0-1.34-.05-2.15-.13s-1.78-.18-2.93-.23c-5.16-.22-6.13-2.71-6.31-3.77-.46-2.72,2.27-5.52,7.29-7.51h0c11-4.36,13.69-3.24,14.79-1.78,1.52,2-.37,4.94-1.93,7C453.2,452.1,451.59,453.32,448.5,453.32Zm7.36-11.72c-1.32,0-4.23.44-10.36,2.87h0c-4.35,1.72-5.54,3.59-5.43,4.23.07.43,1.08,1.16,3.48,1.26,1.24.06,2.27.16,3.1.24,3.56.36,3.93.39,8.24-5.18,1.61-2.09,1.83-3,1.86-3.31A2.59,2.59,0,0,0,455.86,441.6Z" transform="translate(2.45 1.5)" fill="#c0c0c0"/><path d="M218.57,553c-.16-.13-5-2.73-3.81-6.35,1.25-3.9,7.45-6.19,19-7,26.35-1.85,43.53-22.67,46.87-33.41,2.13-6.84,3.67-11.07,7.1-12.11,2.86-.86,6.3.69,12.26,5.54,2.19,1.78,4,3.08,5.45,4.12,2.78,2,4.32,3.09,4.33,4.85s-1.7,3.17-5.85,6.22c-1.13.84-2.45,1.81-4,3-15.35,11.68-33.91,27.95-37,35.09l-2.85-1.18c3.7-8.6,25-26.42,38-36.3,1.54-1.17,2.87-2.15,4-3,2.18-1.61,4.25-3.14,4.6-3.78a18.3,18.3,0,0,0-3.05-2.44c-1.48-1.07-3.34-2.4-5.6-4.24-4.8-3.91-7.81-5.49-9.5-5-2,.6-3.42,4.75-5.09,10.12-4.12,13.21-22.7,33.63-49.53,35.51-13.6,1-15.94,3.75-16.31,4.91-.54,1.66,3.46,3.81,3.49,3.83Z" transform="translate(2.45 1.5)" fill="#c0c0c0"/><path d="M286.9,518.7a2.68,2.68,0,0,1-1.8-.63c-1.75-1.51-.63-4.39.8-8h0c2.08-5.34,3.38-7.84,5.56-8.53a5,5,0,0,1,4.27,1c1.49,1,4.58,3.05,4.47,6.12-.08,2.52-2.15,4.85-6.5,7.35C290.48,517.83,288.38,518.7,286.9,518.7Zm1.79-7.57a25.15,25.15,0,0,0-1.47,4.53,18.19,18.19,0,0,0,5-2.28c4.3-2.46,5-4.09,5-4.85.05-1.24-1.65-2.54-3.13-3.53-.54-.36-1.28-.76-1.7-.62-1.19.37-2.81,4.52-3.68,6.75Z" transform="translate(2.45 1.5)" fill="#c0c0c0"/><path d="M231.28,553.63l-3.17-1.1c4.65-2.77,21.78-12.92,25.8-8.1,4.27,5.13.52,8.41.39,8.56l-2.59-1.54c.13-.16,2.45-2-.11-5.1C250,544.45,239.62,548.66,231.28,553.63Z" transform="translate(2.45 1.5)" fill="#c0c0c0"/><path d="M.62,380.83-.62,378.1l19.59-9C78.4,342,78.4,342,106.05,339.65l8.19-.71c14-1.24,17.76-3.95,18.46-6,1.1-3.24-4.41-8.32-8.83-12.4-2.68-2.48-5.22-4.81-6.44-6.82-5.33-8.74-11.35-17.32-21.17-18s-23.72,11.43-41.33,26.77l-3.14,2.73c-19.57,17-50.61,14.52-51.92,14.4l.26-3c.31,0,31.09,2.49,49.69-13.67L53,320.2c18.14-15.8,32.45-28.29,43.51-27.5,12.19.86,19,12.05,23.52,19.45,1,1.65,3.39,3.85,5.91,6.17,5.33,4.92,11.37,10.48,9.64,15.58-1.48,4.33-8.16,6.88-21,8-3,.27-5.71.5-8.2.71-27.12,2.27-27.12,2.27-86.08,29.23Z" transform="translate(2.45 1.5)" fill="#c0c0c0"/><path d="M.61,374.4l-1.22-2.75c6.49-2.87,12.43-5.51,17.89-7.94,57.13-25.4,61.8-27.47,90.4-29.45,12.64-.88,14.67-2.68,14.95-3.41.45-1.14-2.2-3.91-4.32-6.13-2.68-2.81-5.72-6-7.23-9.66-4.31-10.41-9.2-12.74-15.68-13.12-6.07-.36-8.57-.51-32.24,22C38.76,347.18,1.47,344.78-.11,344.67l.22-3c.37,0,37.56,2.41,61-19.88,24.62-23.43,27.3-23.27,34.45-22.85,6.47.38,13.13,2.46,18.31,15,1.3,3.15,4.13,6.12,6.63,8.74,3.26,3.42,6.08,6.37,5,9.29s-6.24,4.53-17.55,5.31c-28.07,1.94-31.53,3.48-89.38,29.2Z" transform="translate(2.45 1.5)" fill="#c0c0c0"/><path d="M.6,368.54-.6,365.8l3.5-1.55c67.46-29.74,67.46-29.74,87.18-32.69l4-.6c5.44-.84,15.56-2.39,16.37-4.12.26-.58-.8-2.31-1.82-4-.79-1.3-1.7-2.78-2.59-4.57-4.68-9.36-5.88-9.56-12.55-10.67l-.21,0C90.06,307,80.45,315.23,72,322.46c-7.76,6.61-16.56,14.1-24.12,18.5-17,9.85-46.64,9-47.9,9l.1-3c.3,0,30.08.85,46.29-8.58,7.33-4.26,16-11.66,23.68-18.19,11.88-10.12,19.38-16.28,23.76-15.55l.22,0c7.43,1.24,9.58,2,14.73,12.29.84,1.68,1.71,3.09,2.47,4.35,1.7,2.77,2.92,4.78,2,6.81-1.18,2.54-5,3.73-18.64,5.82l-4,.61C71.2,337.42,71.2,337.42,4.11,367Z" transform="translate(2.45 1.5)" fill="#c0c0c0"/><path d="M.57,361.93l-1.14-2.78c3.71-1.51,5.11-2.48,5.63-2.95a17,17,0,0,0-5.1-.8l.08-3c3.51.09,7.78.72,8.24,3.22C8.66,357.71,6.43,359.54.57,361.93Z" transform="translate(2.45 1.5)" fill="#c0c0c0"/><path d="M81.29,330.06c-3.35,0-5.07-.71-5.76-2.18-1-2.2.66-4.95,6.08-9.82h0c6.55-5.91,10.58-8,13.91-7.28,3.15.7,4.84,3.9,5.84,6.24l.07.18c1.58,3.71,2.53,5.95,1.46,7.87-1.25,2.24-4.37,2.82-13.22,4.17A58.53,58.53,0,0,1,81.29,330.06Zm12.94-16.41c-2.21,0-5.61,2.13-10.62,6.64h0c-5.38,4.84-5.37,6.21-5.36,6.35s1.55,1.07,11-.37c5.61-.85,10.46-1.59,11.06-2.66.35-.64-.55-2.77-1.6-5.24l-.07-.17c-1.18-2.76-2.36-4.18-3.73-4.49A3.24,3.24,0,0,0,94.23,313.65Z" transform="translate(2.45 1.5)" fill="#c0c0c0"/><path d="M184.43,553.26c-.44-1.8-4.79-9.35-9.32-17.44-14.42-25.76-26.15-47.69-23.63-55.12a4.07,4.07,0,0,1,2.25-2.52c6.51-2.79,12.44,3.74,19.94,12,6.16,6.79,13.84,15.25,24.15,21.46,20.75,12.5,37.14,1.29,51.76-12.69,13.47-12.88,14.28-42.22,2.06-74.76-13.23-35.24-25.5-44-63.88-57.95-35.09-12.74-69.3-13.25-114.38-1.71C34.11,374.57,1.22,398.86.9,399.1l-1.8-2.4c.34-.25,33.68-24.88,73.54-35.08,45.71-11.7,80.44-11.16,116.14,1.8,38.8,14.08,52.12,23.63,65.67,59.71,12.64,33.67,11.54,64.28-2.8,78-15.48,14.8-32.9,26.63-55.38,13.09-10.69-6.44-18.53-15.07-24.82-22-7-7.67-12-13.21-16.54-11.26a1,1,0,0,0-.59.73c-2.3,6.77,13.8,35.51,23.41,52.69,5.52,9.85,8.67,15.53,9.18,17.63Z" transform="translate(2.45 1.5)" fill="#c0c0c0"/><path d="M46.41,553.28C31.25,530.84-.45,511.5-.77,511.31l1.52-2.58c1.32.8,32.58,19.87,48.1,42.85Z" transform="translate(2.45 1.5)" fill="#c0c0c0"/><path d="M28.29,553.28c-2.63-4.47-22-20.22-29.24-25.91L1,525c1.08.85,26.53,20.89,30,26.76Z" transform="translate(2.45 1.5)" fill="#c0c0c0"/><path d="M6.1,552.92c-.46-3.58-5.29-8.31-7.11-9.83l2.26-2.3c.31.26,7.48,6.31,8.19,11.77Z" transform="translate(2.45 1.5)" fill="#c0c0c0"/><path d="M109.68,552.46l-3-.18c1.61-11.73-3.45-15.52-9-22.78A120.31,120.31,0,0,1,88,515.23c-2-3.56-3.61-6.75-5-9.56-6.22-12.57-8.54-17.28-32.49-15.83-30.31,1.83-50.68-3.51-50.89-3.56l.78-2.9c.2.05,20.14,5.26,49.93,3.46,25.93-1.56,28.89,4.41,35.36,17.49,1.37,2.78,2.93,5.93,4.92,9.41a117.79,117.79,0,0,0,9.46,13.94C105.73,535.1,111.46,539.49,109.68,552.46Z" transform="translate(2.45 1.5)" fill="#c0c0c0"/><path d="M70.7,553.28C54.23,522.22-.16,493.18-.71,492.89l1.43-2.65C3,491.44,56.49,520,73.39,551.88Z" transform="translate(2.45 1.5)" fill="#c0c0c0"/><path d="M81.38,553.46C81,553,47.12,510.7,27.76,501.58c-3.59-1.7-7.18-3.78-6.51-6.36.47-1.77,2.47-3.42,13.87-3.5,5.92,0,11.77.38,11.83.38,25,.42,26.46.44,31,10.56.59,1.3,1.26,2.77,2.1,4.45C84,515,89.31,522.76,93.58,529c3.12,4.58,5.38,7.89,6.17,9.86.38,1,.84,2,1.33,3,1.89,4.1,3.84,8.34,2.08,11.36l-2.65-1.11c1-1.67-.73-5.91-2.15-9-.49-1.06-1-2.15-1.4-3.17-.67-1.67-3.07-5.2-5.86-9.29-4.32-6.35-9.71-14.25-13.7-22.27-.86-1.73-1.54-3.23-2.14-4.55-3.8-8.39-3.8-8.39-28.44-8.8-10.62-.76-20.54-.36-22.5.85.34.41,1.43,1.36,4.72,2.91,20,9.42,53.28,51,54.68,52.73Z" transform="translate(2.45 1.5)" fill="#c0c0c0"/><path d="M87.14,552.68a.23.23,0,0,1-.25-.21C86,547,61.14,520.2,49,509c-5.33-4.93-6.61-6.76-5.93-8.5s3.1-1.8,7.41-1.7c1.75,0,3.74.09,6,0,9.63-.26,10.22-.11,12,1.07a9.37,9.37,0,0,0,.93.58c1.47.81,2.51,3.1,4.74,8.2,2.62,6,6.2,14.17,12,21.9,9.38,12.39,9.31,20.54,9.39,22.05,0,.15,0,0-.19,0l-3,0,2.64,0-2.63.05c0-.07,1-7.73-8.6-20.33-6.06-8-9.88-16.73-12.4-22.51-1.29-2.94-2.74-6.27-3.44-6.77l0,0c-.49-.27-.84-.51-1.14-.71-.95-.66-1.18-.81-10.24-.57-2.31.06-4.43,0-6.13,0-1.34,0-2.79-.07-3.79,0a.25.25,0,0,0-.18.4A47.16,47.16,0,0,0,51,506.73c7.78,7.19,37.85,38,38.88,45.56a.25.25,0,0,1-.24.27Z" transform="translate(2.45 1.5)" fill="#c0c0c0"/><path d="M65.92,516l-.4,0c-4.21-.33-9.22-4.69-9.24-8.05,0-.74.29-3.18,4.11-3.52h0c2.65-.24,5.65,2.51,7.3,5.17.92,1.47,1.81,3.55.86,5.12A2.87,2.87,0,0,1,65.92,516Zm-5.27-8.6c-.51,0-1.37.2-1.37.52,0,1.51,3.57,4.85,6.47,5.07H66a8.11,8.11,0,0,0-2-3.4c-1.35-1.52-2.68-2.26-3.32-2.2Z" transform="translate(2.45 1.5)" fill="#c0c0c0"/><path d="M121.84,552.58c0-.23-3.32-23.76-11.06-34.52-1.57-2.17-3.42-5.13-5.56-8.55-9-14.4-22.65-36.14-36.89-35.44-6.71.34-24,1.11-39.91,1-27-.24-28.86-3-29.66-4.2l2.48-1.68c2.12,3,30.27,3.76,66.94,1.91,16-.78,30.18,21.86,39.58,36.85,2.12,3.38,3.95,6.29,5.45,8.39,8.3,11.53,11.67,35.05,11.68,36.05Z" transform="translate(2.45 1.5)" fill="#c0c0c0"/><path d="M129.59,552.52l-3-.16c.29-31.08.79-32.09-13.36-48.53-8-9.32-10-15.52-11.56-20.5-1.34-4.19-2.3-7.21-6.31-10.85-6.62-6-11.88-5.76-31.48-4.87-6.32.29-14.19.65-24,.87C14.09,469,4.28,464.87.6,461.26c-2-1.95-2.1-3.63-2.1-3.94h3s1.37,9,38.34,8.16c9.75-.22,17.6-.58,23.9-.86,20.05-.91,26.1-1.19,33.63,5.63,4.61,4.19,5.79,7.89,7.15,12.18,1.5,4.71,3.37,10.58,11,19.44C130.05,518.77,129.89,520.32,129.59,552.52Z" transform="translate(2.45 1.5)" fill="#c0c0c0"/><path d="M174.27,553.26c-10.73-22.51-15.39-26.86-21.24-33a144.51,144.51,0,0,1-13.69-16.49c-11.7-16.15-9.05-27.18-6.43-32.31a19,19,0,0,1,17-10.34c9.62,0,17.31,9.31,26.2,20.08,5,6.09,10.24,12.38,16.35,17.75,15,13.14,34.34,12.36,51.87-2.07,9.51-7.83,12-25.18,7.54-51.57-.15-.85-.26-1.52-.33-2s-7.53-46.2-42.08-61C176,368,142.53,363.73,94.15,367.72,46.31,371.67,1.39,407.49.94,407.85l-1.88-2.33c.45-.37,46.07-36.76,94.84-40.79s82.74.26,116.76,14.82c36.65,15.68,43.8,62.84,43.87,63.31s.17,1.09.31,1.91c4.71,27.52,1.82,45.82-8.58,54.39-18.76,15.45-39.61,16.19-55.76,2-6.29-5.52-11.57-11.91-16.68-18.09-8.41-10.19-15.68-19-23.89-19a16,16,0,0,0-14.35,8.7c-3.92,7.7-1.67,18.34,6.19,29.19a140.27,140.27,0,0,0,13.44,16.19c6,6.38,10.4,10.17,21.34,33.11Z" transform="translate(2.45 1.5)" fill="#c0c0c0"/><path d="M140.05,552.69l-3-.53c0-.2,2.83-20.2-4.08-32.86-2.54-4.65-6.09-8.89-9.86-13.38-6.86-8.19-14-16.65-16.27-29-3.2-17.05-11.28-20.78-39.29-18.1-30.91,2.95-64.28,4.44-69.06-15.39-4.38-18.19,6-36.14,27.74-48C44.83,385.3,72.86,370,127.88,373c55.25,3,73.6,9.82,84.27,16.11,11.32,6.67,19.45,15.86,25.58,28.95,9.23,19.66,13.67,34.88,13.21,45.24-.08,1.64-.1,3.28-.12,4.85-.15,11.08-.3,21.53-17.95,30.89-20.76,11-33.8.58-45.37-11-5.3-5.32-10.28-12.06-14.67-18-5.33-7.2-10.36-14-13.69-15-4.81-1.48-20.89-1.72-28.88,4.57a11.48,11.48,0,0,0-4.58,10.37c.1,1.62.18,3.1.25,4.46.78,14.19.87,15.68,15.89,39.31,5.94,9.34,10.35,15.61,13.57,20.19,6,8.47,9.61,11,10.37,17.65l-2.66,1.4c-.68-5.89-4.37-9.08-10.17-17.33-3.23-4.6-7.67-10.9-13.64-20.3-15.45-24.29-15.55-26.17-16.35-40.76-.08-1.35-.16-2.82-.26-4.44a14.44,14.44,0,0,1,5.73-12.9c8.92-7,26.21-6.75,31.62-5.09,4.27,1.32,9.1,7.85,15.21,16.11,4.33,5.86,9.24,12.49,14.38,17.66,11.23,11.28,22.88,20.57,41.85,10.51,16.08-8.53,16.2-17.24,16.35-28.28,0-1.6.05-3.25.12-4.94.44-9.87-3.91-24.62-12.92-43.84-5.87-12.51-13.62-21.29-24.39-27.64-10.36-6.1-28.3-12.74-82.91-15.69-54.17-2.94-81.75,12.1-100,22.06C7.23,409.23-2.59,425.93,1.46,442.72c4.57,19,44.44,15.15,65.85,13.1,26.28-2.51,38.65-.14,42.53,20.54,2.17,11.59,9,19.74,15.62,27.63,3.86,4.61,7.51,9,10.2,13.88C143.06,531.43,140.19,551.84,140.05,552.69Z" transform="translate(2.45 1.5)" fill="#c0c0c0"/><path d="M216.2,487.54c-5.24,0-10.89-3.31-16.84-9.9-8.34-9.24-13.65-16.22-17.91-21.83-5.74-7.55-8.9-11.71-14-14.11-8.15-3.82-25-3.41-42.9,1.06-9.43,2.35-19.71.54-28.79-1.06-6.91-1.21-13.44-2.36-18.79-1.63-13.22,1.8-41.39-3.36-42.85-13.62-.38-2.7.93-6,3.68-9.18,4.66-5.44,24.92-23.24,90-24.09l0,1.5,0-1.5c37.89-.49,73.14,1.06,88.1,25,1.33,2.13,2.59,4.13,3.79,6,12.12,19.25,17.66,28,15.14,40.24-.67,3.27-4.58,19.71-15.41,22.66A12.39,12.39,0,0,1,216.2,487.54Zm-64.37-51.41c6.52,0,12.51.81,16.88,2.86,5.78,2.71,9.3,7.33,15.12,15,4.24,5.57,9.5,12.49,17.76,21.64,6.36,7,12.09,9.93,17,8.59,7.08-1.93,11.56-12.17,13.25-20.37,2.28-11-2.7-18.92-14.74-38q-1.8-2.85-3.79-6c-14.14-22.62-48.52-24.07-85.52-23.59C64,397,44.52,414,40.07,419.22c-2.15,2.52-3.24,5-3,6.81,1.08,7.59,26.54,12.83,39.47,11.07,5.82-.79,12.57.39,19.72,1.65,9.21,1.62,18.74,3.29,27.55,1.1A121.94,121.94,0,0,1,151.83,436.13Z" transform="translate(2.45 1.5)" fill="#c0c0c0"/><path d="M213.8,473.66a13,13,0,0,1-1.36-.08c-5.83-.67-11.72-5.44-17.52-14.18-11.48-17.3-22.2-28.65-37.3-27.8-8.72.48-23.8.25-37.1,0-11-.16-21.31-.32-26.42,0-44.95,2.3-46.56-3.31-47.17-5.43-.8-2.81,1.85-5.79,8.34-9.38,17.79-9.86,42.86-14.65,74.52-14.25l4.5,0c26.85.22,57.3.47,77,26.62,20.74,27.55,12.44,39,9.4,41.89A10.06,10.06,0,0,1,213.8,473.66Zm-54.58-45.11c15.57,0,26.59,11.69,38.2,29.19,6.58,9.92,12,12.47,15.36,12.86a7.28,7.28,0,0,0,5.84-1.69c1.83-1.73,10-11.69-9.75-37.91-18.79-25-47.17-25.2-74.61-25.42l-4.51,0c-31.13-.38-55.69,4.27-73,13.87-7.34,4.06-6.92,5.86-6.9,5.94.16.55,2.75,5.37,44.13,3.25,5.2-.27,15.61-.11,26.62,0,13.25.2,28.27.43,36.88,0C158.05,428.57,158.64,428.55,159.22,428.55Z" transform="translate(2.45 1.5)" fill="#c0c0c0"/><path d="M211.17,459a4.09,4.09,0,0,1-.88-.1c-4.43-1-12.44-9.65-16.86-16.84-4.21-6.84-12-19.57-73.11-17.79-20.86.62-46.14-.17-48.75-4.4a2.16,2.16,0,0,1-.06-2.21c2.78-5.15,39.41-6.93,61-7.53h0c32.69-.91,52.67,5,69,20.46,12.91,12.21,13.71,20.51,13.45,23.51a5.74,5.74,0,0,1-2.15,4.44A2.94,2.94,0,0,1,211.17,459Zm-79.86-37.89c52.77,0,60.43,12.48,64.68,19.38,5.55,9,13.5,15.82,15.23,15.51a3.29,3.29,0,0,0,.76-2.16c.17-2-.24-9.44-12.53-21.07-15.69-14.84-35.06-20.53-66.86-19.64-39.13,1.09-54.27,3.87-57.76,5.55,3.35,1.39,17,3.43,45.4,2.59Q126.08,421.14,131.31,421.14Z" transform="translate(2.45 1.5)" fill="#c0c0c0"/><path d="M593.74,152.54c-1.76-.45-9.1-4.44-.32-42.84l3.66-.46c-8.2,35.91-1.44,41-1.37,41h0Z" transform="translate(2.45 1.5)" fill="#c0c0c0"/><path d="M6.39,552.19l3-.17" transform="translate(2.45 1.5)" fill="#c0c0c0"/><path d="M28.37,553.24l2-2.26" transform="translate(2.45 1.5)" fill="#c0c0c0"/><path d="M46.24,553.16l2.13-2.11" transform="translate(2.45 1.5)" fill="#c0c0c0"/><path d="M61.72,553l2.39-1.81" transform="translate(2.45 1.5)" fill="#c0c0c0"/><line x1="109.13" y1="553.61" x2="112.13" y2="553.61" fill="#c0c0c0"/><path d="M70.59,552.85l2.6-1.49" transform="translate(2.45 1.5)" fill="#c0c0c0"/><path d="M100.44,552.12l3,0" transform="translate(2.45 1.5)" fill="#c0c0c0"/><path d="M80.91,552.62l2.81-1" transform="translate(2.45 1.5)" fill="#c0c0c0"/><path d="M92.35,552.67l2.79-1.12" transform="translate(2.45 1.5)" fill="#c0c0c0"/><path d="M86.83,552.48l2.9-.75" transform="translate(2.45 1.5)" fill="#c0c0c0"/><path d="M195,552.79l2.67-1.36" transform="translate(2.45 1.5)" fill="#c0c0c0"/><path d="M114.1,552l3,.13" transform="translate(2.45 1.5)" fill="#c0c0c0"/><path d="M155.12,555.1l.34,0,.3.17M148.54,558" transform="translate(2.45 1.5)" fill="#c0c0c0"/><path d="M469.23,553.13l2.2-2" transform="translate(2.45 1.5)" fill="#c0c0c0"/><path d="M284.56,551.19l2.37,1.83" transform="translate(2.45 1.5)" fill="#c0c0c0"/><path d="M502.62,553.32l1.76-2.43" transform="translate(2.45 1.5)" fill="#c0c0c0"/><path d="M452.83,553.11l2.22-2" transform="translate(2.45 1.5)" fill="#c0c0c0"/><path d="M296.61,551l2.08,2.17" transform="translate(2.45 1.5)" fill="#c0c0c0"/><path d="M433.23,553.37l1.61-2.53" transform="translate(2.45 1.5)" fill="#c0c0c0"/><path d="M310.42,551.07l2.16,2.08" transform="translate(2.45 1.5)" fill="#c0c0c0"/><path d="M415.64,553.54l.9-2.86" transform="translate(2.45 1.5)" fill="#c0c0c0"/><path d="M325.94,550.82l1.56,2.57" transform="translate(2.45 1.5)" fill="#c0c0c0"/><path d="M393.45,553.61v-3" transform="translate(2.45 1.5)" fill="#c0c0c0"/><path d="M342.43,550.63l.58,3" transform="translate(2.45 1.5)" fill="#c0c0c0"/><path d="M372.1,557.51" transform="translate(2.45 1.5)" fill="#c0c0c0"/><path d="M207.25,553l2.46-1.72" transform="translate(2.45 1.5)" fill="#c0c0c0"/><path d="M260.17,551.51l2.75,1.2" transform="translate(2.45 1.5)" fill="#c0c0c0"/><path d="M218.48,552.83l2.63-1.45" transform="translate(2.45 1.5)" fill="#c0c0c0"/><path d="M251.71,551.45l2.7,1.31" transform="translate(2.45 1.5)" fill="#c0c0c0"/><path d="M228.11,552.53l2.88-.85" transform="translate(2.45 1.5)" fill="#c0c0c0"/><path d="M184.21,552.92l2.52-1.63" transform="translate(2.45 1.5)" fill="#c0c0c0"/><path d="M121.91,551.94l3,.33" transform="translate(2.45 1.5)" fill="#c0c0c0"/><path d="M174.06,553l2.49-1.68" transform="translate(2.45 1.5)" fill="#c0c0c0"/><path d="M126.61,552l3,.18" transform="translate(2.45 1.5)" fill="#c0c0c0"/><path d="M163,552.69l2.76-1.17" transform="translate(2.45 1.5)" fill="#c0c0c0"/><path d="M137.14,551.87l3,.47" transform="translate(2.45 1.5)" fill="#c0c0c0"/><path d="M481.07,552.72l2.74-1.22" transform="translate(2.45 1.5)" fill="#c0c0c0"/><path d="M270.82,551.31l2.53,1.6" transform="translate(2.45 1.5)" fill="#c0c0c0"/><path d="M490.47,552.8l2.65-1.39" transform="translate(2.45 1.5)" fill="#c0c0c0"/><path d="M516.22,553.27l1.88-2.33" transform="translate(2.45 1.5)" fill="#c0c0c0"/><path d="M534.94,553.26l1.91-2.31" transform="translate(2.45 1.5)" fill="#c0c0c0"/><path d="M550.75,553.07l2.29-1.93" transform="translate(2.45 1.5)" fill="#c0c0c0"/><path d="M594.72,15.54h0l0-3a5.78,5.78,0,0,0,3.86-1.89" transform="translate(2.45 1.5)" fill="#c0c0c0"/><path d="M593.69,59.22l2.08-2.16" transform="translate(2.45 1.5)" fill="#c0c0c0"/><path d="M596,111.17l-2.61-1.47" transform="translate(2.45 1.5)" fill="#c0c0c0"/><path d="M593.74,152.54l2-2.26" transform="translate(2.45 1.5)" fill="#c0c0c0"/><path d="M596.71,139.36" transform="translate(2.45 1.5)" fill="#c0c0c0"/><path d="M594.05,165.24l1.35-2.68" transform="translate(2.45 1.5)" fill="#c0c0c0"/><path d="M593.55,173.41l2.35-1.86" transform="translate(2.45 1.5)" fill="#c0c0c0"/><path d="M595.69,219.68l-1.93-2.3" transform="translate(2.45 1.5)" fill="#c0c0c0"/><path d="M594.71,330.12l0-3" transform="translate(2.45 1.5)" fill="#c0c0c0"/><path d="M595.59,390.69l-1.73-2.46" transform="translate(2.45 1.5)" fill="#c0c0c0"/><path d="M592.35,478.56a2.82,2.82,0,0,1,1.67-3l1.26,2.37-.55-1.05.54,1a.38.38,0,0,0-.08-.17" transform="translate(2.45 1.5)" fill="#c0c0c0"/><path d="M594.08,501.66l1.33-2.74" transform="translate(2.45 1.5)" fill="#c0c0c0"/><path d="M596.24,293.66" transform="translate(2.45 1.5)" fill="#c0c0c0"/><path d="M594.09,183.21l1.26-2.72" transform="translate(2.45 1.5)" fill="#c0c0c0"/><path d="M595.43,208.15,594,205.5" transform="translate(2.45 1.5)" fill="#c0c0c0"/><path d="M595.89,236.25l-2.33-1.88" transform="translate(2.45 1.5)" fill="#c0c0c0"/><path d="M594.56,324.22l.33-3" transform="translate(2.45 1.5)" fill="#c0c0c0"/><path d="M596,255.21l-2.57-1.56" transform="translate(2.45 1.5)" fill="#c0c0c0"/><path d="M594.93,319.33l-.41-3" transform="translate(2.45 1.5)" fill="#c0c0c0"/><path d="M595.73,266.48l-2-2.24" transform="translate(2.45 1.5)" fill="#c0c0c0"/><path d="M596.8,311.79c-1.25,0-2-.05-2.16-.05l.17-3" transform="translate(2.45 1.5)" fill="#c0c0c0"/><path d="M595.2,278.49l-1-2.84" transform="translate(2.45 1.5)" fill="#c0c0c0"/><path d="M594.21,305l1-2.82" transform="translate(2.45 1.5)" fill="#c0c0c0"/><path d="M594.6,339.83l.26-3" transform="translate(2.45 1.5)" fill="#c0c0c0"/><path d="M595.35,381.07l-1.25-2.73" transform="translate(2.45 1.5)" fill="#c0c0c0"/><path d="M594.62,344.91l.21-3" transform="translate(2.45 1.5)" fill="#c0c0c0"/><path d="M595.33,374.63l-1.21-2.74" transform="translate(2.45 1.5)" fill="#c0c0c0"/><path d="M594.68,350.18l.09-3" transform="translate(2.45 1.5)" fill="#c0c0c0"/><path d="M595.33,368.78,594.12,366l3.51-1.55" transform="translate(2.45 1.5)" fill="#c0c0c0"/><path d="M594.69,355.64l.07-3" transform="translate(2.45 1.5)" fill="#c0c0c0"/><path d="M595.29,362.16l-1.13-2.77" transform="translate(2.45 1.5)" fill="#c0c0c0"/><path d="M595.62,399.34l-1.79-2.4" transform="translate(2.45 1.5)" fill="#c0c0c0"/><path d="M594,511.55l1.52-2.58" transform="translate(2.45 1.5)" fill="#c0c0c0"/><path d="M593.78,527.61l2-2.35" transform="translate(2.45 1.5)" fill="#c0c0c0"/><path d="M593.72,543.33,596,541" transform="translate(2.45 1.5)" fill="#c0c0c0"/><path d="M594.34,486.52l.77-2.9" transform="translate(2.45 1.5)" fill="#c0c0c0"/><path d="M594,493.13l1.43-2.65" transform="translate(2.45 1.5)" fill="#c0c0c0"/><path d="M593.48,471.08,596,469.4" transform="translate(2.45 1.5)" fill="#c0c0c0"/><path d="M595.32,461.5c-2-2-2.09-3.63-2.09-3.94h3" transform="translate(2.45 1.5)" fill="#c0c0c0"/><path d="M595.67,408.09l-1.89-2.34" transform="translate(2.45 1.5)" fill="#c0c0c0"/><path d="M596.18,443" transform="translate(2.45 1.5)" fill="#c0c0c0"/><path d="M593.27,443.66" transform="translate(2.45 1.5)" fill="#c0c0c0"/></svg>
